<?xml version="1.0" encoding="UTF-8"?>
<svg id="Layer_2" data-name="Layer 2" xmlns="http://www.w3.org/2000/svg" viewBox="0 0 701.88 398.71">
  <defs>
    <style>
      .cls-1 {
        stroke-width: 0px;
      }
    </style>
  </defs>
  <g id="Graphic_Elements" data-name="Graphic Elements">
    <g>
      <g>
        <path class="cls-1" d="m241.31,116.99v44h50.86v-44h13.73v105.16h-13.73v-49.3h-50.86v49.3h-13.57v-105.16h13.57Z"/>
        <path class="cls-1" d="m349.43,128.54h-31.98v-11.55h77.85v11.55h-32.14v93.61h-13.73v-93.61Z"/>
        <path class="cls-1" d="m495.62,175.97c-.78-14.67-1.72-32.3-1.56-45.4h-.47c-3.59,12.33-7.96,25.43-13.26,39.94l-18.57,51.02h-10.3l-17.01-50.08c-4.99-14.82-9.21-28.4-12.17-40.88h-.31c-.31,13.11-1.09,30.74-2.03,46.49l-2.81,45.09h-12.95l7.33-105.16h17.32l17.94,50.86c4.37,12.95,7.96,24.5,10.61,35.42h.47c2.65-10.61,6.4-22.15,11.08-35.42l18.72-50.86h17.32l6.55,105.16h-13.26l-2.65-46.18Z"/>
        <path class="cls-1" d="m532.44,116.99h13.57v93.77h44.93v11.39h-58.51v-105.16Z"/>
      </g>
      <g>
        <path class="cls-1" d="m145.94,167.11c-2.37,1.23-7.1,2.46-13.17,2.46-14.06,0-24.64-9.22-24.64-26.21s10.58-27.21,26.05-27.21c6.22,0,10.14,1.38,11.84,2.31l-1.55,5.46c-2.44-1.23-5.92-2.15-10.07-2.15-11.69,0-19.46,7.76-19.46,21.37,0,12.68,7.03,20.83,19.17,20.83,3.92,0,7.92-.85,10.51-2.15l1.33,5.3Z"/>
        <path class="cls-1" d="m153.11,160.65c2.89,1.84,7.1,3.38,11.54,3.38,6.59,0,10.43-3.61,10.43-8.84,0-4.84-2.66-7.61-9.4-10.3-8.14-3-13.17-7.38-13.17-14.68,0-8.07,6.44-14.07,16.13-14.07,5.11,0,8.81,1.23,11.03,2.54l-1.78,5.46c-1.63-.92-4.96-2.46-9.47-2.46-6.81,0-9.4,4.23-9.4,7.76,0,4.84,3.04,7.23,9.92,9.99,8.44,3.38,12.73,7.61,12.73,15.22,0,8-5.7,14.91-17.47,14.91-4.81,0-10.06-1.46-12.73-3.31l1.63-5.61Z"/>
        <path class="cls-1" d="m189.6,160.65c2.89,1.84,7.1,3.38,11.54,3.38,6.59,0,10.43-3.61,10.43-8.84,0-4.84-2.66-7.61-9.4-10.3-8.14-3-13.17-7.38-13.17-14.68,0-8.07,6.44-14.07,16.13-14.07,5.11,0,8.81,1.23,11.03,2.54l-1.78,5.46c-1.63-.92-4.96-2.46-9.47-2.46-6.81,0-9.4,4.23-9.4,7.76,0,4.84,3.03,7.23,9.92,9.99,8.44,3.38,12.73,7.61,12.73,15.22,0,8-5.7,14.91-17.47,14.91-4.81,0-10.06-1.46-12.73-3.31l1.63-5.61Z"/>
      </g>
      <g>
        <path class="cls-1" d="m241.53,59.92h6.22v32.25c0,12.8-6.29,16.73-14.59,16.73-2.29,0-5.08-.5-6.65-1.14l.93-5.08c1.29.5,3.15.93,5.22.93,5.58,0,8.87-2.5,8.87-11.94v-31.75Z"/>
        <path class="cls-1" d="m265.91,92.96l-5,15.16h-6.44l16.38-48.19h7.51l16.45,48.19h-6.65l-5.15-15.16h-17.09Zm15.8-4.86l-4.72-13.87c-1.07-3.15-1.79-6.01-2.5-8.79h-.14c-.71,2.86-1.5,5.79-2.43,8.72l-4.72,13.94h14.52Z"/>
        <path class="cls-1" d="m308.67,108.12l-15.73-48.19h6.72l7.51,23.74c2.07,6.51,3.86,12.37,5.15,18.02h.14c1.36-5.58,3.36-11.65,5.5-17.95l8.15-23.81h6.65l-17.23,48.19h-6.86Z"/>
        <path class="cls-1" d="m341.71,92.96l-5,15.16h-6.44l16.38-48.19h7.51l16.45,48.19h-6.65l-5.15-15.16h-17.09Zm15.8-4.86l-4.72-13.87c-1.07-3.15-1.79-6.01-2.5-8.79h-.14c-.71,2.86-1.5,5.79-2.43,8.72l-4.72,13.94h14.52Z"/>
        <path class="cls-1" d="m376.82,100.54c2.79,1.72,6.86,3.15,11.15,3.15,6.36,0,10.08-3.36,10.08-8.22,0-4.5-2.57-7.08-9.08-9.58-7.87-2.79-12.73-6.86-12.73-13.66,0-7.51,6.22-13.08,15.59-13.08,4.93,0,8.51,1.14,10.65,2.36l-1.72,5.08c-1.57-.86-4.79-2.29-9.15-2.29-6.58,0-9.08,3.93-9.08,7.22,0,4.5,2.93,6.72,9.58,9.29,8.15,3.15,12.3,7.08,12.3,14.16,0,7.44-5.5,13.87-16.87,13.87-4.65,0-9.72-1.36-12.3-3.07l1.57-5.22Z"/>
        <path class="cls-1" d="m446.61,106.54c-2.29,1.14-6.86,2.29-12.73,2.29-13.59,0-23.81-8.58-23.81-24.38s10.22-25.31,25.17-25.31c6.01,0,9.8,1.29,11.44,2.15l-1.5,5.08c-2.36-1.14-5.72-2-9.72-2-11.3,0-18.81,7.22-18.81,19.88,0,11.8,6.79,19.38,18.52,19.38,3.79,0,7.65-.79,10.15-2l1.29,4.93Z"/>
        <path class="cls-1" d="m454.41,60.57c3.15-.64,7.65-1,11.94-1,6.65,0,10.94,1.22,13.94,3.93,2.43,2.15,3.79,5.43,3.79,9.15,0,6.36-4,10.58-9.08,12.3v.21c3.72,1.29,5.93,4.72,7.08,9.72,1.57,6.72,2.72,11.37,3.72,13.23h-6.44c-.79-1.36-1.86-5.51-3.22-11.51-1.43-6.65-4-9.15-9.65-9.37h-5.86v20.88h-6.22v-47.55Zm6.22,21.95h6.36c6.65,0,10.87-3.65,10.87-9.15,0-6.22-4.5-8.94-11.08-9.01-3,0-5.15.29-6.15.57v17.59Z"/>
        <path class="cls-1" d="m499.1,59.92v48.19h-6.22v-48.19h6.22Z"/>
        <path class="cls-1" d="m509.97,60.49c3-.5,6.94-.93,11.94-.93,6.15,0,10.65,1.43,13.51,4,2.65,2.29,4.22,5.79,4.22,10.08s-1.29,7.79-3.72,10.3c-3.29,3.5-8.65,5.29-14.73,5.29-1.86,0-3.58-.07-5-.43v19.31h-6.22v-47.62Zm6.22,23.24c1.36.36,3.07.5,5.15.5,7.51,0,12.08-3.65,12.08-10.3s-4.5-9.44-11.37-9.44c-2.72,0-4.79.21-5.86.5v18.73Z"/>
        <path class="cls-1" d="m557.17,65.21h-14.66v-5.29h35.68v5.29h-14.73v42.9h-6.29v-42.9Z"/>
      </g>
      <g>
        <path class="cls-1" d="m301.03,225.8v49.88h-6.44v-49.88h6.44Z"/>
        <path class="cls-1" d="m312.28,225.8h6.44v44.48h21.31v5.4h-27.75v-49.88Z"/>
        <path class="cls-1" d="m347.2,225.8h6.44v44.48h21.31v5.4h-27.75v-49.88Z"/>
        <path class="cls-1" d="m385.91,225.8v29.53c0,11.17,4.96,15.91,11.62,15.91,7.4,0,12.14-4.88,12.14-15.91v-29.53h6.51v29.08c0,15.32-8.07,21.61-18.87,21.61-10.21,0-17.91-5.85-17.91-21.31v-29.38h6.51Z"/>
        <path class="cls-1" d="m426.46,267.84c2.89,1.78,7.1,3.26,11.54,3.26,6.59,0,10.43-3.48,10.43-8.51,0-4.66-2.66-7.33-9.4-9.92-8.14-2.89-13.17-7.1-13.17-14.13,0-7.77,6.44-13.54,16.13-13.54,5.11,0,8.81,1.18,11.03,2.44l-1.78,5.25c-1.63-.89-4.96-2.37-9.47-2.37-6.81,0-9.4,4.07-9.4,7.47,0,4.66,3.04,6.96,9.92,9.62,8.44,3.26,12.73,7.33,12.73,14.65,0,7.7-5.7,14.36-17.47,14.36-4.81,0-10.06-1.41-12.73-3.18l1.63-5.4Z"/>
        <path class="cls-1" d="m473.3,231.28h-15.17v-5.48h36.93v5.48h-15.25v44.4h-6.51v-44.4Z"/>
        <path class="cls-1" d="m500.6,226.47c3.26-.67,7.92-1.04,12.36-1.04,6.88,0,11.32,1.26,14.43,4.07,2.52,2.22,3.92,5.62,3.92,9.47,0,6.59-4.14,10.95-9.4,12.73v.22c3.85,1.33,6.14,4.88,7.33,10.06,1.63,6.96,2.81,11.77,3.85,13.69h-6.66c-.81-1.41-1.92-5.7-3.33-11.92-1.48-6.88-4.14-9.47-9.99-9.69h-6.07v21.61h-6.44v-49.21Zm6.44,22.72h6.59c6.88,0,11.25-3.77,11.25-9.47,0-6.44-4.66-9.25-11.47-9.32-3.11,0-5.33.3-6.37.59v18.21Z"/>
        <path class="cls-1" d="m548.85,259.99l-5.18,15.69h-6.66l16.95-49.88h7.77l17.02,49.88h-6.88l-5.33-15.69h-17.69Zm16.35-5.03l-4.88-14.36c-1.11-3.26-1.85-6.22-2.59-9.1h-.15c-.74,2.96-1.55,5.99-2.52,9.03l-4.88,14.43h15.02Z"/>
        <path class="cls-1" d="m589.85,231.28h-15.17v-5.48h36.93v5.48h-15.25v44.4h-6.51v-44.4Z"/>
        <path class="cls-1" d="m657.78,250.22c0,17.17-10.43,26.27-23.16,26.27s-22.42-10.21-22.42-25.31c0-15.84,9.84-26.2,23.16-26.2s22.42,10.43,22.42,25.24Zm-38.7.81c0,10.66,5.77,20.2,15.91,20.2s15.99-9.4,15.99-20.72c0-9.92-5.18-20.28-15.91-20.28s-15.99,9.84-15.99,20.8Z"/>
        <path class="cls-1" d="m666.14,226.47c3.26-.67,7.92-1.04,12.36-1.04,6.88,0,11.32,1.26,14.43,4.07,2.52,2.22,3.92,5.62,3.92,9.47,0,6.59-4.14,10.95-9.4,12.73v.22c3.85,1.33,6.14,4.88,7.33,10.06,1.63,6.96,2.81,11.77,3.85,13.69h-6.66c-.81-1.41-1.92-5.7-3.33-11.92-1.48-6.88-4.14-9.47-9.99-9.69h-6.07v21.61h-6.44v-49.21Zm6.44,22.72h6.59c6.88,0,11.25-3.77,11.25-9.47,0-6.44-4.66-9.25-11.47-9.32-3.11,0-5.33.3-6.37.59v18.21Z"/>
      </g>
      <g>
        <path class="cls-1" d="m0,176.65c1.74-.29,4.03-.54,6.93-.54,3.57,0,6.19.83,7.85,2.33,1.54,1.33,2.45,3.36,2.45,5.85s-.75,4.53-2.16,5.98c-1.91,2.03-5.02,3.07-8.55,3.07-1.08,0-2.08-.04-2.91-.25v11.21H0v-27.65Zm3.61,13.49c.79.21,1.79.29,2.99.29,4.36,0,7.02-2.12,7.02-5.98s-2.62-5.48-6.6-5.48c-1.58,0-2.78.12-3.4.29v10.88Z"/>
        <path class="cls-1" d="m25.7,176.31v11.71h13.54v-11.71h3.65v27.98h-3.65v-13.12h-13.54v13.12h-3.61v-27.98h3.61Z"/>
        <path class="cls-1" d="m73.08,190.02c0,9.63-5.85,14.74-13,14.74s-12.58-5.73-12.58-14.2c0-8.88,5.52-14.7,13-14.7s12.58,5.85,12.58,14.16Zm-21.71.46c0,5.98,3.24,11.33,8.93,11.33s8.97-5.27,8.97-11.62c0-5.56-2.91-11.38-8.93-11.38s-8.97,5.52-8.97,11.67Z"/>
        <path class="cls-1" d="m82.05,179.39h-8.51v-3.07h20.72v3.07h-8.55v24.91h-3.65v-24.91Z"/>
        <path class="cls-1" d="m120.17,190.02c0,9.63-5.85,14.74-13,14.74s-12.58-5.73-12.58-14.2c0-8.88,5.52-14.7,13-14.7s12.58,5.85,12.58,14.16Zm-21.71.46c0,5.98,3.24,11.33,8.93,11.33s8.97-5.27,8.97-11.62c0-5.56-2.91-11.38-8.93-11.38s-8.97,5.52-8.97,11.67Z"/>
        <path class="cls-1" d="m124.37,199.9c1.62,1,3.99,1.83,6.48,1.83,3.7,0,5.85-1.95,5.85-4.77,0-2.62-1.49-4.11-5.27-5.56-4.57-1.62-7.39-3.99-7.39-7.93,0-4.36,3.61-7.6,9.05-7.6,2.87,0,4.94.66,6.19,1.37l-1,2.95c-.91-.5-2.78-1.33-5.31-1.33-3.82,0-5.27,2.28-5.27,4.19,0,2.62,1.7,3.9,5.56,5.4,4.73,1.83,7.14,4.11,7.14,8.22,0,4.32-3.2,8.05-9.8,8.05-2.7,0-5.65-.79-7.14-1.79l.91-3.03Z"/>
        <path class="cls-1" d="m148.95,176.31v11.71h13.54v-11.71h3.65v27.98h-3.65v-13.12h-13.54v13.12h-3.61v-27.98h3.61Z"/>
        <path class="cls-1" d="m196.32,190.02c0,9.63-5.85,14.74-13,14.74s-12.58-5.73-12.58-14.2c0-8.88,5.52-14.7,13-14.7s12.58,5.85,12.58,14.16Zm-21.71.46c0,5.98,3.24,11.33,8.93,11.33s8.97-5.27,8.97-11.62c0-5.56-2.91-11.38-8.93-11.38s-8.97,5.52-8.97,11.67Z"/>
        <path class="cls-1" d="m201.02,176.65c1.74-.29,4.03-.54,6.93-.54,3.57,0,6.19.83,7.85,2.33,1.54,1.33,2.45,3.36,2.45,5.85s-.75,4.53-2.16,5.98c-1.91,2.03-5.02,3.07-8.55,3.07-1.08,0-2.08-.04-2.91-.25v11.21h-3.61v-27.65Zm3.61,13.49c.79.21,1.79.29,2.99.29,4.36,0,7.02-2.12,7.02-5.98s-2.62-5.48-6.6-5.48c-1.58,0-2.78.12-3.4.29v10.88Z"/>
      </g>
      <g>
        <path class="cls-1" d="m174.06,333.88l-12.74-22.08c-5.19-8.45-8.45-13.93-11.56-19.71h-.3c-2.82,5.78-5.63,11.11-10.82,19.86l-12,21.93h-14.82l30.53-50.53-29.34-49.34h14.97l13.19,23.41c3.7,6.52,6.52,11.56,9.19,16.89h.44c2.82-5.93,5.33-10.52,9.04-16.89l13.63-23.41h14.82l-30.38,48.6,31.12,51.27h-14.97Z"/>
        <path class="cls-1" d="m204,235.34c7.85-1.19,17.19-2.08,27.41-2.08,18.52,0,31.71,4.3,40.45,12.45,8.89,8.15,14.08,19.71,14.08,35.86s-5.04,29.64-14.37,38.82c-9.34,9.33-24.75,14.37-44.16,14.37-9.19,0-16.89-.44-23.41-1.18v-98.24Zm12.89,88.31c3.26.59,8,.74,13.04.74,27.56,0,42.53-15.41,42.53-42.38.15-23.56-13.19-38.53-40.45-38.53-6.67,0-11.71.59-15.11,1.33v78.83Z"/>
      </g>
      <g>
        <path class="cls-1" d="m417.63,3.16h21.69v5.11h-16.49v15.67h15.24v5.04h-15.24v21.33h-5.2V3.16Z"/>
        <path class="cls-1" d="m451.93,3.16v47.14h-5.2V3.16h5.2Z"/>
        <path class="cls-1" d="m491.67,48.21c-2.33.98-6.93,2.59-12.37,2.59-6.09,0-11.11-1.82-15.06-6.22-3.47-3.92-5.62-10.21-5.62-17.56.06-14.06,8.31-24.34,21.81-24.34,4.66,0,8.31,1.19,10.04,2.17l-1.25,4.97c-2.15-1.12-4.84-2.03-8.9-2.03-9.8,0-16.19,7.13-16.19,18.96s6.15,19.03,15.54,19.03c3.41,0,5.74-.56,6.93-1.26v-14.06h-8.19v-4.9h13.26v22.66Z"/>
        <path class="cls-1" d="m533.56,29.6c-.3-6.58-.66-14.48-.6-20.35h-.18c-1.37,5.53-3.05,11.4-5.08,17.91l-7.11,22.87h-3.94l-6.51-22.45c-1.91-6.64-3.53-12.73-4.66-18.33h-.12c-.12,5.88-.42,13.78-.78,20.84l-1.08,20.21h-4.96l2.81-47.14h6.63l6.87,22.8c1.67,5.81,3.05,10.98,4.06,15.88h.18c1.02-4.76,2.45-9.93,4.24-15.88l7.17-22.8h6.63l2.51,47.14h-5.08l-1.02-20.7Z"/>
        <path class="cls-1" d="m553.58,35.48l-4.18,14.83h-5.38l13.68-47.14h6.27l13.74,47.14h-5.56l-4.3-14.83h-14.28Zm13.21-4.76l-3.94-13.57c-.9-3.08-1.49-5.88-2.09-8.6h-.12c-.6,2.8-1.25,5.67-2.03,8.53l-3.94,13.64h12.13Z"/>
      </g>
      <g>
        <path class="cls-1" d="m318.17,334.47c-1.45.52-4.3,1.37-7.67,1.37-3.78,0-6.89-.96-9.34-3.3-2.15-2.08-3.48-5.41-3.48-9.3.04-7.45,5.15-12.9,13.53-12.9,2.89,0,5.15.63,6.23,1.15l-.78,2.63c-1.33-.59-3-1.08-5.52-1.08-6.08,0-10.04,3.78-10.04,10.04s3.82,10.08,9.64,10.08c2.11,0,3.56-.3,4.3-.67v-7.45h-5.08v-2.59h8.23v12.01Z"/>
        <path class="cls-1" d="m326.32,310.6v24.98h-3.22v-24.98h3.22Z"/>
        <path class="cls-1" d="m336.7,313.34h-7.6v-2.74h18.5v2.74h-7.64v22.24h-3.26v-22.24Z"/>
      </g>
      <g>
        <path class="cls-1" d="m581.61,316.37c-1.81.65-5.38,1.72-9.6,1.72-4.73,0-8.63-1.21-11.69-4.13-2.69-2.6-4.36-6.77-4.36-11.64.05-9.32,6.45-16.14,16.93-16.14,3.62,0,6.45.79,7.79,1.44l-.97,3.29c-1.67-.74-3.76-1.35-6.91-1.35-7.61,0-12.57,4.73-12.57,12.57s4.78,12.62,12.06,12.62c2.64,0,4.45-.37,5.38-.83v-9.32h-6.35v-3.25h10.3v15.03Z"/>
        <path class="cls-1" d="m591.81,286.5v31.26h-4.04v-31.26h4.04Z"/>
        <path class="cls-1" d="m604.8,289.93h-9.51v-3.43h23.15v3.43h-9.56v27.83h-4.08v-27.83Z"/>
        <path class="cls-1" d="m625.95,286.5v13.08h15.12v-13.08h4.08v31.26h-4.08v-14.66h-15.12v14.66h-4.04v-31.26h4.04Z"/>
        <path class="cls-1" d="m656.2,286.5v18.51c0,7,3.11,9.97,7.28,9.97,4.64,0,7.61-3.06,7.61-9.97v-18.51h4.08v18.23c0,9.6-5.06,13.54-11.83,13.54-6.4,0-11.23-3.66-11.23-13.36v-18.42h4.08Z"/>
        <path class="cls-1" d="m682.17,286.92c1.76-.37,4.55-.65,7.38-.65,4.04,0,6.63.7,8.58,2.27,1.62,1.21,2.6,3.06,2.6,5.52,0,3.01-2,5.66-5.29,6.87v.09c2.97.74,6.45,3.2,6.45,7.84,0,2.69-1.07,4.73-2.64,6.26-2.18,2-5.71,2.92-10.81,2.92-2.78,0-4.92-.19-6.26-.37v-30.75Zm4.04,12.8h3.66c4.27,0,6.77-2.23,6.77-5.24,0-3.67-2.78-5.1-6.87-5.1-1.86,0-2.92.14-3.57.28v10.07Zm0,14.98c.79.14,1.95.19,3.39.19,4.17,0,8.02-1.53,8.02-6.08,0-4.27-3.66-6.03-8.07-6.03h-3.34v11.92Z"/>
      </g>
      <g>
        <path class="cls-1" d="m244.06,37.56c.79-.17,1.92-.27,3-.27,1.67,0,2.75.33,3.5,1.05.61.58.95,1.46.95,2.45,0,1.71-1.01,2.84-2.28,3.3v.06c.93.35,1.49,1.27,1.78,2.61.39,1.8.68,3.05.93,3.55h-1.62c-.2-.36-.47-1.48-.81-3.09-.36-1.78-1-2.45-2.42-2.51h-1.47v5.6h-1.56v-12.75Zm1.56,5.88h1.6c1.67,0,2.73-.98,2.73-2.45,0-1.67-1.13-2.4-2.78-2.42-.75,0-1.29.08-1.54.15v4.71Z"/>
        <path class="cls-1" d="m259.99,44.25h-4.71v4.66h5.24v1.4h-6.81v-12.92h6.54v1.4h-4.97v4.08h4.71v1.38Z"/>
        <path class="cls-1" d="m262.34,48.28c.7.46,1.72.84,2.8.84,1.6,0,2.53-.9,2.53-2.2,0-1.21-.65-1.9-2.28-2.57-1.98-.75-3.2-1.84-3.2-3.66,0-2.01,1.56-3.51,3.92-3.51,1.24,0,2.14.31,2.68.63l-.43,1.36c-.4-.23-1.2-.61-2.3-.61-1.65,0-2.28,1.05-2.28,1.94,0,1.21.74,1.8,2.41,2.49,2.05.84,3.09,1.9,3.09,3.79,0,1.99-1.38,3.72-4.24,3.72-1.17,0-2.44-.36-3.09-.82l.4-1.4Z"/>
        <path class="cls-1" d="m271.41,37.54c.75-.13,1.74-.25,3-.25,1.54,0,2.68.38,3.39,1.07.66.61,1.06,1.55,1.06,2.7s-.32,2.09-.93,2.76c-.83.94-2.17,1.42-3.7,1.42-.47,0-.9-.02-1.26-.12v5.17h-1.56v-12.76Zm1.56,6.23c.34.1.77.13,1.29.13,1.89,0,3.04-.98,3.04-2.76s-1.13-2.53-2.86-2.53c-.68,0-1.2.06-1.47.13v5.02Z"/>
        <path class="cls-1" d="m291.31,43.71c0,4.45-2.53,6.8-5.62,6.8s-5.44-2.64-5.44-6.55c0-4.1,2.39-6.78,5.62-6.78s5.44,2.7,5.44,6.54Zm-9.39.21c0,2.76,1.4,5.23,3.86,5.23s3.88-2.43,3.88-5.37c0-2.57-1.26-5.25-3.86-5.25s-3.88,2.55-3.88,5.39Z"/>
        <path class="cls-1" d="m293.34,50.31v-12.92h1.71l3.88,6.54c.9,1.51,1.6,2.88,2.17,4.2l.04-.02c-.14-1.72-.18-3.3-.18-5.31v-5.4h1.47v12.92h-1.58l-3.84-6.55c-.84-1.44-1.65-2.91-2.26-4.31l-.05.02c.09,1.63.13,3.18.13,5.33v5.52h-1.47Z"/>
        <path class="cls-1" d="m304.94,48.28c.7.46,1.72.84,2.8.84,1.6,0,2.53-.9,2.53-2.2,0-1.21-.65-1.9-2.28-2.57-1.98-.75-3.2-1.84-3.2-3.66,0-2.01,1.56-3.51,3.92-3.51,1.24,0,2.14.31,2.68.63l-.43,1.36c-.4-.23-1.2-.61-2.3-.61-1.65,0-2.28,1.05-2.28,1.94,0,1.21.74,1.8,2.41,2.49,2.05.84,3.09,1.9,3.09,3.79,0,1.99-1.38,3.72-4.24,3.72-1.17,0-2.44-.36-3.09-.82l.4-1.4Z"/>
        <path class="cls-1" d="m315.57,37.39v12.92h-1.56v-12.92h1.56Z"/>
        <path class="cls-1" d="m320.96,50.31l-3.95-12.92h1.69l1.89,6.36c.52,1.74.97,3.32,1.29,4.83h.04c.34-1.5.84-3.12,1.38-4.81l2.05-6.38h1.67l-4.33,12.92h-1.72Z"/>
        <path class="cls-1" d="m334.58,44.25h-4.71v4.66h5.24v1.4h-6.81v-12.92h6.54v1.4h-4.97v4.08h4.71v1.38Z"/>
        <path class="cls-1" d="m340.96,37.56c.95-.15,2.08-.27,3.32-.27,2.25,0,3.84.56,4.9,1.61,1.08,1.05,1.71,2.55,1.71,4.64s-.61,3.83-1.74,5.02c-1.13,1.21-3,1.86-5.35,1.86-1.11,0-2.05-.06-2.84-.15v-12.71Zm1.56,11.42c.39.08.97.1,1.58.1,3.34,0,5.15-1.99,5.15-5.48.02-3.05-1.6-4.98-4.9-4.98-.81,0-1.42.08-1.83.17v10.2Z"/>
        <path class="cls-1" d="m359.19,44.25h-4.71v4.66h5.24v1.4h-6.81v-12.92h6.54v1.4h-4.97v4.08h4.71v1.38Z"/>
        <path class="cls-1" d="m361.54,48.28c.7.46,1.72.84,2.8.84,1.6,0,2.53-.9,2.53-2.2,0-1.21-.65-1.9-2.28-2.57-1.98-.75-3.2-1.84-3.2-3.66,0-2.01,1.56-3.51,3.92-3.51,1.24,0,2.14.31,2.68.63l-.43,1.36c-.4-.23-1.2-.61-2.3-.61-1.65,0-2.28,1.05-2.28,1.94,0,1.21.74,1.8,2.41,2.49,2.05.84,3.09,1.9,3.09,3.79,0,1.99-1.38,3.72-4.24,3.72-1.17,0-2.44-.36-3.09-.82l.4-1.4Z"/>
        <path class="cls-1" d="m372.17,37.39v12.92h-1.56v-12.92h1.56Z"/>
        <path class="cls-1" d="m384.11,49.73c-.7.27-2.08.71-3.72.71-1.83,0-3.34-.5-4.53-1.71-1.04-1.07-1.69-2.8-1.69-4.81.02-3.85,2.5-6.67,6.56-6.67,1.4,0,2.5.33,3.02.59l-.38,1.36c-.65-.31-1.46-.56-2.68-.56-2.95,0-4.87,1.96-4.87,5.19s1.85,5.21,4.67,5.21c1.02,0,1.72-.15,2.08-.34v-3.85h-2.46v-1.34h3.99v6.21Z"/>
        <path class="cls-1" d="m386.5,50.31v-12.92h1.71l3.88,6.54c.9,1.51,1.6,2.88,2.17,4.2l.04-.02c-.14-1.72-.18-3.3-.18-5.31v-5.4h1.47v12.92h-1.58l-3.84-6.55c-.84-1.44-1.65-2.91-2.26-4.31l-.05.02c.09,1.63.13,3.18.13,5.33v5.52h-1.47Z"/>
      </g>
      <g>
        <path class="cls-1" d="m53.9,232.86c-1.98,2.89-3.63,7.1-3.63,11.54,0,6.59,3.88,10.43,9.49,10.43,5.2,0,8.17-2.66,11.06-9.4,3.22-8.14,7.92-13.17,15.77-13.17,8.67,0,15.11,6.44,15.11,16.13,0,5.11-1.32,8.81-2.72,11.03l-5.86-1.78c.99-1.63,2.64-4.96,2.64-9.47,0-6.81-4.54-9.4-8.34-9.4-5.2,0-7.76,3.03-10.73,9.92-3.63,8.44-8.17,12.73-16.34,12.73-8.59,0-16.01-5.7-16.01-17.47,0-4.81,1.57-10.06,3.55-12.73l6.03,1.63Z"/>
        <path class="cls-1" d="m71.23,296.06v-19.39h-20.06v21.61h-6.03v-28.05h55.64v26.94h-6.03v-20.5h-17.58v19.39h-5.94Z"/>
        <path class="cls-1" d="m73.54,349.26c-19.15,0-29.31-10.43-29.31-23.16s11.39-22.42,28.23-22.42c17.67,0,29.22,9.84,29.22,23.16s-11.64,22.42-28.15,22.42Zm-.91-38.7c-11.89,0-22.54,5.77-22.54,15.91s10.48,15.98,23.11,15.98c11.06,0,22.62-5.18,22.62-15.91s-10.98-15.99-23.2-15.99Z"/>
      </g>
      <g>
        <path class="cls-1" d="m423.25,285.48c3.11-.52,7.18-.96,12.36-.96,6.36,0,11.03,1.48,13.99,4.14,2.74,2.37,4.37,6,4.37,10.43s-1.33,8.07-3.85,10.66c-3.4,3.63-8.96,5.48-15.25,5.48-1.92,0-3.7-.07-5.18-.44v19.98h-6.44v-49.29Zm6.44,24.05c1.41.37,3.18.52,5.33.52,7.77,0,12.51-3.77,12.51-10.66s-4.66-9.77-11.77-9.77c-2.81,0-4.96.22-6.07.52v19.39Z"/>
        <path class="cls-1" d="m469.06,284.89v20.87h24.13v-20.87h6.51v49.88h-6.51v-23.39h-24.13v23.39h-6.44v-49.88h6.44Z"/>
        <path class="cls-1" d="m510.87,285.48c3.11-.52,7.18-.96,12.36-.96,6.36,0,11.03,1.48,13.99,4.14,2.74,2.37,4.37,6,4.37,10.43s-1.33,8.07-3.85,10.66c-3.4,3.63-8.96,5.48-15.25,5.48-1.92,0-3.7-.07-5.18-.44v19.98h-6.44v-49.29Zm6.44,24.05c1.41.37,3.18.52,5.33.52,7.77,0,12.51-3.77,12.51-10.66s-4.66-9.77-11.77-9.77c-2.81,0-4.96.22-6.07.52v19.39Z"/>
      </g>
      <g>
        <path class="cls-1" d="m624.81,45.39c6.96-.37,15.32-.81,21.54-.74v-.22c-5.85-1.7-12.06-3.77-18.95-6.29l-24.2-8.81v-4.88l23.76-8.07c7.03-2.37,13.47-4.37,19.39-5.77v-.15c-6.22-.15-14.58-.52-22.05-.96l-21.39-1.33V2.02l49.88,3.48v8.21l-24.13,8.51c-6.14,2.07-11.62,3.77-16.8,5.03v.22c5.03,1.26,10.51,3.03,16.8,5.25l24.13,8.88v8.21l-49.88,3.11v-6.29l21.91-1.26Z"/>
        <path class="cls-1" d="m602.91,73.95h21.17l28.71-15.76v7.33l-13.77,7.03c-3.77,1.92-6.81,3.4-10.29,4.96v.15c3.26,1.41,6.51,3.11,10.29,5.03l13.77,7.18v7.33l-28.64-16.73h-21.24v-6.51Z"/>
        <path class="cls-1" d="m610.75,101.04c-1.78,2.89-3.26,7.1-3.26,11.54,0,6.59,3.48,10.43,8.51,10.43,4.66,0,7.33-2.66,9.92-9.4,2.89-8.14,7.1-13.17,14.13-13.17,7.77,0,13.54,6.44,13.54,16.13,0,5.11-1.18,8.81-2.44,11.03l-5.25-1.78c.89-1.63,2.37-4.96,2.37-9.47,0-6.81-4.07-9.4-7.47-9.4-4.66,0-6.96,3.04-9.62,9.92-3.26,8.44-7.33,12.73-14.65,12.73-7.7,0-14.36-5.7-14.36-17.47,0-4.81,1.41-10.06,3.18-12.73l5.4,1.63Z"/>
        <path class="cls-1" d="m595.58,179.55c1.78-6.73,3.77-13.32,5.77-19.09.37-1.04.74-2.07.74-3.03.44-11.84,9.18-21.98,25.24-21.98s26.27,9.77,26.27,23.24-10.51,22.35-25.24,22.35c-12.8,0-21.02-5.92-23.9-14.21h-.3c-1.26,4.96-2.44,10.36-3.18,14.58l-5.4-1.85Zm32.49-5.33c9.99,0,20.28-5.18,20.28-15.76s-10.07-16.21-20.87-16.13c-10.58-.07-20.13,5.77-20.13,15.84s9.32,16.06,20.72,16.06Z"/>
        <path class="cls-1" d="m652.79,189.39v6.44h-44.48v21.31h-5.4v-27.75h49.88Z"/>
      </g>
      <g>
        <path class="cls-1" d="m291.57,397.9v-49.88h7.03l15.98,25.24c3.7,5.85,6.59,11.1,8.96,16.21l.15-.07c-.59-6.66-.74-12.73-.74-20.5v-20.87h6.07v49.88h-6.51l-15.84-25.31c-3.48-5.55-6.81-11.25-9.33-16.65l-.22.07c.37,6.29.52,12.28.52,20.57v21.31h-6.07Z"/>
        <path class="cls-1" d="m382.89,372.44c0,17.17-10.43,26.27-23.16,26.27s-22.42-10.21-22.42-25.31c0-15.84,9.84-26.2,23.16-26.2s22.42,10.43,22.42,25.24Zm-38.7.81c0,10.66,5.77,20.2,15.91,20.2s15.98-9.4,15.98-20.72c0-9.92-5.18-20.28-15.91-20.28s-15.99,9.84-15.99,20.8Z"/>
        <path class="cls-1" d="m391.24,348.68c3.92-.59,8.58-1.04,13.69-1.04,9.25,0,15.84,2.15,20.2,6.22,4.44,4.07,7.03,9.84,7.03,17.91s-2.52,14.8-7.18,19.39c-4.66,4.66-12.36,7.18-22.05,7.18-4.59,0-8.44-.22-11.69-.59v-49.07Zm6.44,44.11c1.63.3,4,.37,6.51.37,13.76,0,21.24-7.7,21.24-21.17.07-11.77-6.59-19.24-20.2-19.24-3.33,0-5.85.3-7.55.67v39.37Z"/>
        <path class="cls-1" d="m466.36,374.51h-19.39v17.98h21.61v5.4h-28.05v-49.88h26.94v5.4h-20.5v15.76h19.39v5.33Z"/>
        <path class="cls-1" d="m474.86,394.05c0-2.74,1.85-4.66,4.44-4.66s4.37,1.92,4.37,4.66-1.7,4.66-4.44,4.66c-2.59,0-4.37-2-4.37-4.66Z"/>
        <path class="cls-1" d="m502.17,348.02h6.44v33.38c0,13.25-6.51,17.32-15.1,17.32-2.37,0-5.25-.52-6.88-1.18l.96-5.25c1.33.52,3.26.96,5.4.96,5.77,0,9.18-2.59,9.18-12.36v-32.86Z"/>
        <path class="cls-1" d="m518.45,390.05c2.89,1.78,7.1,3.26,11.54,3.26,6.59,0,10.43-3.48,10.43-8.51,0-4.66-2.66-7.33-9.4-9.92-8.14-2.89-13.17-7.1-13.17-14.13,0-7.77,6.44-13.54,16.13-13.54,5.11,0,8.81,1.18,11.03,2.44l-1.78,5.25c-1.63-.89-4.96-2.37-9.47-2.37-6.81,0-9.4,4.07-9.4,7.47,0,4.66,3.03,6.96,9.92,9.62,8.44,3.26,12.73,7.33,12.73,14.65,0,7.7-5.7,14.36-17.47,14.36-4.81,0-10.06-1.41-12.73-3.18l1.63-5.4Z"/>
      </g>
      <g>
        <path class="cls-1" d="m304.36,293.92h-6.02v5.58h6.71v1.68h-8.71v-15.49h8.37v1.68h-6.37v4.89h6.02v1.65Z"/>
        <path class="cls-1" d="m316.12,301.18l-1.98-3.42c-.8-1.31-1.31-2.16-1.79-3.06h-.05c-.44.9-.87,1.72-1.68,3.08l-1.86,3.4h-2.3l4.73-7.84-4.55-7.65h2.32l2.04,3.63c.58,1.01,1.01,1.79,1.42,2.62h.07c.44-.92.83-1.63,1.4-2.62l2.11-3.63h2.3l-4.71,7.54,4.83,7.95h-2.32Z"/>
        <path class="cls-1" d="m320.76,285.88c.97-.16,2.23-.3,3.84-.3,1.98,0,3.42.46,4.34,1.29.85.74,1.36,1.86,1.36,3.24s-.41,2.5-1.2,3.31c-1.06,1.13-2.78,1.7-4.73,1.7-.6,0-1.15-.02-1.61-.14v6.2h-2v-15.3Zm2,7.47c.44.12.99.16,1.65.16,2.41,0,3.88-1.17,3.88-3.31s-1.45-3.03-3.65-3.03c-.87,0-1.54.07-1.88.16v6.02Z"/>
        <path class="cls-1" d="m332.99,285.9c1.01-.21,2.46-.32,3.84-.32,2.14,0,3.52.39,4.48,1.26.78.69,1.22,1.75,1.22,2.94,0,2.05-1.29,3.4-2.92,3.95v.07c1.2.41,1.91,1.52,2.28,3.13.51,2.16.87,3.65,1.2,4.25h-2.07c-.25-.44-.6-1.77-1.03-3.7-.46-2.14-1.29-2.94-3.1-3.01h-1.88v6.71h-2v-15.28Zm2,7.05h2.04c2.14,0,3.49-1.17,3.49-2.94,0-2-1.45-2.87-3.56-2.9-.96,0-1.65.09-1.98.18v5.65Z"/>
        <path class="cls-1" d="m353.37,293.92h-6.02v5.58h6.71v1.68h-8.71v-15.49h8.37v1.68h-6.37v4.89h6.02v1.65Z"/>
        <path class="cls-1" d="m356.38,298.75c.9.55,2.21,1.01,3.58,1.01,2.04,0,3.24-1.08,3.24-2.64,0-1.45-.83-2.28-2.92-3.08-2.53-.9-4.09-2.21-4.09-4.39,0-2.41,2-4.21,5.01-4.21,1.58,0,2.73.37,3.42.76l-.55,1.63c-.51-.28-1.54-.74-2.94-.74-2.11,0-2.92,1.26-2.92,2.32,0,1.45.94,2.16,3.08,2.99,2.62,1.01,3.95,2.28,3.95,4.55,0,2.39-1.77,4.46-5.42,4.46-1.49,0-3.13-.44-3.95-.99l.51-1.68Z"/>
        <path class="cls-1" d="m367.71,298.75c.9.55,2.21,1.01,3.58,1.01,2.04,0,3.24-1.08,3.24-2.64,0-1.45-.83-2.28-2.92-3.08-2.53-.9-4.09-2.21-4.09-4.39,0-2.41,2-4.21,5.01-4.21,1.58,0,2.73.37,3.42.76l-.55,1.63c-.51-.28-1.54-.74-2.94-.74-2.11,0-2.92,1.26-2.92,2.32,0,1.45.94,2.16,3.08,2.99,2.62,1.01,3.95,2.28,3.95,4.55,0,2.39-1.77,4.46-5.42,4.46-1.49,0-3.13-.44-3.95-.99l.51-1.68Z"/>
        <path class="cls-1" d="m378.76,299.99c0-.85.57-1.45,1.38-1.45s1.36.6,1.36,1.45-.53,1.45-1.38,1.45c-.8,0-1.36-.62-1.36-1.45Z"/>
        <path class="cls-1" d="m387.24,285.7h2v10.36c0,4.11-2.02,5.38-4.69,5.38-.74,0-1.63-.16-2.14-.37l.3-1.63c.41.16,1.01.3,1.68.3,1.79,0,2.85-.8,2.85-3.84v-10.2Z"/>
        <path class="cls-1" d="m392.29,298.75c.9.55,2.21,1.01,3.58,1.01,2.04,0,3.24-1.08,3.24-2.64,0-1.45-.83-2.28-2.92-3.08-2.53-.9-4.09-2.21-4.09-4.39,0-2.41,2-4.21,5.01-4.21,1.58,0,2.73.37,3.42.76l-.55,1.63c-.51-.28-1.54-.74-2.94-.74-2.11,0-2.92,1.26-2.92,2.32,0,1.45.94,2.16,3.08,2.99,2.62,1.01,3.95,2.28,3.95,4.55,0,2.39-1.77,4.46-5.42,4.46-1.49,0-3.13-.44-3.95-.99l.51-1.68Z"/>
      </g>
      <g>
        <path class="cls-1" d="m187.02,357.37c-.1-1.93-.23-4.26-.21-5.99h-.06c-.47,1.63-1.05,3.36-1.75,5.27l-2.45,6.73h-1.36l-2.24-6.61c-.66-1.96-1.21-3.75-1.61-5.39h-.04c-.04,1.73-.14,4.06-.27,6.13l-.37,5.95h-1.71l.97-13.87h2.29l2.37,6.71c.58,1.71,1.05,3.23,1.4,4.67h.06c.35-1.4.84-2.92,1.46-4.67l2.47-6.71h2.29l.86,13.87h-1.75l-.35-6.09Z"/>
        <path class="cls-1" d="m203.74,356.38c0,4.78-2.9,7.31-6.44,7.31s-6.24-2.84-6.24-7.04c0-4.41,2.74-7.29,6.44-7.29s6.24,2.9,6.24,7.02Zm-10.77.23c0,2.96,1.61,5.62,4.43,5.62s4.45-2.61,4.45-5.76c0-2.76-1.44-5.64-4.43-5.64s-4.45,2.74-4.45,5.78Z"/>
        <path class="cls-1" d="m206.06,363.46v-13.87h1.96l4.45,7.02c1.03,1.63,1.83,3.09,2.49,4.51l.04-.02c-.17-1.85-.21-3.54-.21-5.7v-5.8h1.69v13.87h-1.81l-4.41-7.04c-.97-1.54-1.89-3.13-2.59-4.63l-.06.02c.1,1.75.14,3.42.14,5.72v5.93h-1.69Z"/>
        <path class="cls-1" d="m230.17,362.85c-.8.29-2.39.76-4.26.76-2.1,0-3.83-.54-5.19-1.83-1.19-1.15-1.93-3.01-1.93-5.17.02-4.14,2.86-7.16,7.51-7.16,1.61,0,2.86.35,3.46.64l-.43,1.46c-.74-.33-1.67-.6-3.07-.6-3.38,0-5.58,2.1-5.58,5.58s2.12,5.6,5.35,5.6c1.17,0,1.98-.17,2.39-.37v-4.14h-2.82v-1.44h4.57v6.67Z"/>
        <path class="cls-1" d="m244.76,356.38c0,4.78-2.9,7.31-6.44,7.31s-6.24-2.84-6.24-7.04c0-4.41,2.74-7.29,6.44-7.29s6.24,2.9,6.24,7.02Zm-10.77.23c0,2.96,1.61,5.62,4.43,5.62s4.45-2.61,4.45-5.76c0-2.76-1.44-5.64-4.43-5.64s-4.45,2.74-4.45,5.78Z"/>
        <path class="cls-1" d="m247.09,349.78c1.09-.17,2.39-.29,3.81-.29,2.57,0,4.41.6,5.62,1.73,1.23,1.13,1.96,2.74,1.96,4.98s-.7,4.12-2,5.39c-1.3,1.3-3.44,2-6.13,2-1.28,0-2.35-.06-3.25-.16v-13.65Zm1.79,12.27c.45.08,1.11.1,1.81.1,3.83,0,5.91-2.14,5.91-5.89.02-3.27-1.83-5.35-5.62-5.35-.93,0-1.63.08-2.1.19v10.95Z"/>
        <path class="cls-1" d="m260.79,349.78c.78-.17,2.02-.29,3.27-.29,1.79,0,2.94.31,3.81,1.01.72.54,1.15,1.36,1.15,2.45,0,1.34-.88,2.51-2.35,3.05v.04c1.32.33,2.86,1.42,2.86,3.48,0,1.19-.47,2.1-1.17,2.78-.97.88-2.53,1.3-4.8,1.3-1.23,0-2.18-.08-2.78-.16v-13.65Zm1.79,5.68h1.63c1.89,0,3-.99,3-2.33,0-1.63-1.23-2.26-3.05-2.26-.82,0-1.3.06-1.58.12v4.47Zm0,6.65c.35.06.86.08,1.5.08,1.85,0,3.56-.68,3.56-2.7,0-1.89-1.63-2.68-3.58-2.68h-1.48v5.29Z"/>
      </g>
      <g>
        <path class="cls-1" d="m257.61.82c1.8-.37,4.38-.57,6.83-.57,3.8,0,6.26.7,7.98,2.25,1.39,1.23,2.17,3.11,2.17,5.24,0,3.64-2.29,6.05-5.2,7.04v.12c2.13.74,3.4,2.7,4.05,5.56.9,3.85,1.55,6.5,2.13,7.57h-3.68c-.45-.78-1.06-3.15-1.84-6.59-.82-3.8-2.29-5.24-5.52-5.36h-3.35v11.95h-3.56V.82Zm3.56,12.56h3.64c3.8,0,6.22-2.09,6.22-5.24,0-3.56-2.58-5.11-6.34-5.15-1.72,0-2.95.16-3.52.33v10.06Z"/>
        <path class="cls-1" d="m293.89,15.1h-10.72v9.94h11.95v2.99h-15.5V.45h14.89v2.99h-11.33v8.71h10.72v2.95Z"/>
        <path class="cls-1" d="m304.2,19.35l-2.86,8.67h-3.68L307.02.45h4.3l9.41,27.57h-3.8l-2.95-8.67h-9.78Zm9.04-2.78l-2.7-7.94c-.61-1.8-1.02-3.44-1.43-5.03h-.08c-.41,1.64-.86,3.31-1.39,4.99l-2.7,7.98h8.3Z"/>
        <path class="cls-1" d="m343.43,27.12c-1.31.66-3.93,1.31-7.28,1.31-7.77,0-13.62-4.91-13.62-13.95s5.85-14.48,14.4-14.48c3.44,0,5.6.74,6.54,1.23l-.86,2.9c-1.35-.65-3.27-1.15-5.56-1.15-6.46,0-10.76,4.13-10.76,11.37,0,6.75,3.89,11.09,10.6,11.09,2.17,0,4.38-.45,5.81-1.15l.74,2.82Z"/>
        <path class="cls-1" d="m354.27,3.48h-8.39V.45h20.41v3.03h-8.43v24.54h-3.6V3.48Z"/>
        <path class="cls-1" d="m365.92,25.9c0-1.51,1.02-2.58,2.46-2.58s2.41,1.06,2.41,2.58-.94,2.58-2.45,2.58c-1.43,0-2.41-1.1-2.41-2.58Z"/>
        <path class="cls-1" d="m381.02.45h3.56v18.45c0,7.32-3.6,9.57-8.35,9.57-1.31,0-2.9-.29-3.8-.65l.53-2.91c.74.29,1.8.53,2.99.53,3.19,0,5.07-1.43,5.07-6.83V.45Z"/>
        <path class="cls-1" d="m390.02,23.69c1.6.98,3.93,1.8,6.38,1.8,3.64,0,5.77-1.92,5.77-4.71,0-2.58-1.47-4.05-5.2-5.48-4.5-1.6-7.28-3.93-7.28-7.81,0-4.3,3.56-7.49,8.92-7.49,2.82,0,4.87.65,6.1,1.35l-.98,2.91c-.9-.49-2.74-1.31-5.24-1.31-3.76,0-5.2,2.25-5.2,4.13,0,2.58,1.68,3.85,5.48,5.32,4.66,1.8,7.04,4.05,7.04,8.1,0,4.25-3.15,7.94-9.65,7.94-2.66,0-5.56-.78-7.04-1.76l.9-2.99Z"/>
      </g>
    </g>
  </g>
</svg>