<?xml version="1.0" encoding="utf-8"?>
<!-- Generator: Adobe Illustrator 27.8.0, SVG Export Plug-In . SVG Version: 6.00 Build 0)  -->
<svg version="1.1" id="Layer_1" xmlns="http://www.w3.org/2000/svg" xmlns:xlink="http://www.w3.org/1999/xlink" x="0px" y="0px"
	 viewBox="0 0 1171.9 659.2" style="enable-background:new 0 0 1171.9 659.2;" xml:space="preserve">
<style type="text/css">
	.st0{opacity:0.22;}
	.st1{fill:#FFFFFF;}
	.st2{clip-path:url(#SVGID_00000144302351870806635290000009949700053257443262_);}
	.st3{fill:url(#SVGID_00000077319127145004937790000009530457904154576573_);}
	.st4{clip-path:url(#SVGID_00000061441962541398255830000014290016311920304310_);}
	.st5{opacity:0.1;fill:#FFFFFF;enable-background:new    ;}
	.st6{opacity:0.5;fill:#FFFFFF;enable-background:new    ;}
	.st7{fill:#FFFFFF;fill-opacity:0;}
	.st8{opacity:0.3;fill:#FFFFFF;enable-background:new    ;}
	.st9{opacity:0.8;fill:#FFFFFF;enable-background:new    ;}
	.st10{opacity:0.56;fill:#FFFFFF;enable-background:new    ;}
	.st11{opacity:0.13;fill:#FFFFFF;enable-background:new    ;}
	.st12{opacity:0.16;fill:#FFFFFF;enable-background:new    ;}
	.st13{opacity:0.57;fill:#FFFFFF;enable-background:new    ;}
	.st14{opacity:0.69;fill:#FFFFFF;enable-background:new    ;}
	.st15{opacity:0.6;fill:#FFFFFF;enable-background:new    ;}
	.st16{opacity:0.9;fill:#FFFFFF;enable-background:new    ;}
	.st17{opacity:5.000000e-02;fill:#FFFFFF;enable-background:new    ;}
	.st18{opacity:0.51;fill:#FFFFFF;enable-background:new    ;}
	.st19{opacity:0.68;fill:#FFFFFF;enable-background:new    ;}
	.st20{opacity:0.61;fill:#FFFFFF;enable-background:new    ;}
	.st21{opacity:0.19;fill:#FFFFFF;enable-background:new    ;}
	.st22{opacity:0.72;fill:#FFFFFF;enable-background:new    ;}
	.st23{opacity:0.59;fill:#FFFFFF;enable-background:new    ;}
	.st24{opacity:0.12;fill:#FFFFFF;enable-background:new    ;}
	.st25{opacity:0.2;fill:#FFFFFF;enable-background:new    ;}
	.st26{opacity:0.81;fill:#FFFFFF;enable-background:new    ;}
	.st27{opacity:0.52;fill:#FFFFFF;enable-background:new    ;}
	.st28{opacity:0.17;fill:#FFFFFF;enable-background:new    ;}
	.st29{clip-path:url(#SVGID_00000076603718643301267310000014469664271289597338_);}
	.st30{opacity:0.5;fill:url(#SVGID_00000116210244008559169680000000800706428695335859_);enable-background:new    ;}
	.st31{opacity:0.5;fill:url(#SVGID_00000003798857906593249010000001199820805665762695_);enable-background:new    ;}
	.st32{opacity:0.5;fill:url(#SVGID_00000117635137470635557890000013143868666265317004_);enable-background:new    ;}
	.st33{opacity:0.5;fill:url(#SVGID_00000046311000889127703350000009779527244465207171_);enable-background:new    ;}
	.st34{opacity:0.5;fill:url(#SVGID_00000115479281425714585100000000535561320780982148_);enable-background:new    ;}
	.st35{fill:url(#SVGID_00000114787072100711010550000002585392476730247043_);}
	.st36{fill:url(#SVGID_00000159427911598962498990000001073485734777421971_);}
	.st37{fill:url(#SVGID_00000063620170980561534960000011305192026143723936_);}
	.st38{fill:url(#SVGID_00000179620796849348343350000009916947406030748816_);}
	.st39{fill:url(#SVGID_00000000180754103359513730000008903651387705793930_);}
	.st40{fill:url(#SVGID_00000081641882235913845100000013424212778129040806_);}
	.st41{fill:url(#SVGID_00000181074018936669369460000013388128062376456880_);}
	.st42{fill:url(#SVGID_00000058566271967221264880000002498708426381199774_);}
	.st43{fill:url(#SVGID_00000012442377238746520640000012698556938282804887_);}
</style>
<g class="st0">
	<g id="Layer_2_00000058579901798121250040000001821201378500967343_">
		<g id="Graphic_Elements">
			<g>
				<rect class="st1" width="1171.9" height="659.2"/>
				<g>
					<defs>
						<rect id="SVGID_1_" width="1171.9" height="659.2"/>
					</defs>
					<clipPath id="SVGID_00000125570883263502946770000003801623601400197517_">
						<use xlink:href="#SVGID_1_"  style="overflow:visible;"/>
					</clipPath>
					<g style="clip-path:url(#SVGID_00000125570883263502946770000003801623601400197517_);">
						<g>
							
								<linearGradient id="SVGID_00000123405783421795433580000015464006112546564277_" gradientUnits="userSpaceOnUse" x1="-17.1161" y1="-27.3956" x2="1229.296" y2="692.2156" gradientTransform="matrix(1 0 0 -1 0 662)">
								<stop  offset="0" style="stop-color:#8A9BBB"/>
								<stop  offset="5.000000e-02" style="stop-color:#94A2BC"/>
								<stop  offset="0.13" style="stop-color:#A7B0C0"/>
								<stop  offset="0.22" style="stop-color:#B3B8C2"/>
								<stop  offset="0.31" style="stop-color:#B7BBC3"/>
								<stop  offset="0.36" style="stop-color:#BFC1C7"/>
								<stop  offset="0.45" style="stop-color:#CDCDCF"/>
								<stop  offset="0.54" style="stop-color:#D2D2D2"/>
								<stop  offset="0.57" style="stop-color:#D9D9D9;stop-opacity:0.93"/>
								<stop  offset="0.64" style="stop-color:#E5E5E5;stop-opacity:0.83"/>
								<stop  offset="0.72" style="stop-color:#E9E9E9;stop-opacity:0.8"/>
								<stop  offset="0.72" style="stop-color:#E8E8E8;stop-opacity:0.8"/>
								<stop  offset="0.85" style="stop-color:#D0D0D0;stop-opacity:0.95"/>
								<stop  offset="1" style="stop-color:#C9C9C9"/>
							</linearGradient>
							
								<rect x="6.1" y="-70.4" style="fill:url(#SVGID_00000123405783421795433580000015464006112546564277_);" width="1200" height="800"/>
							<g>
								<defs>
									<rect id="SVGID_00000075844569887900479560000010641811426488767107_" x="6.1" y="-70.4" width="1200" height="800"/>
								</defs>
								<clipPath id="SVGID_00000083083500093676913740000014085699885774170039_">
									<use xlink:href="#SVGID_00000075844569887900479560000010641811426488767107_"  style="overflow:visible;"/>
								</clipPath>
								<g style="clip-path:url(#SVGID_00000083083500093676913740000014085699885774170039_);">
									<g>
										<polygon class="st5" points="363.9,30 363.9,30 433.1,-89.9 294.7,-89.9 										"/>
										<polygon class="st6" points="225.5,30 225.5,30 363.9,30 294.7,-89.9 										"/>
										<polygon class="st7" points="156.3,-89.9 225.5,30 294.7,-89.9 										"/>
										<polygon class="st8" points="363.9,269.7 363.9,269.7 433.1,149.8 294.7,149.8 										"/>
										<polygon class="st9" points="225.5,269.7 225.5,269.7 363.9,269.7 294.7,149.8 										"/>
										<polygon class="st8" points="156.3,149.8 225.5,269.7 294.7,149.8 										"/>
										<polygon class="st6" points="294.7,149.8 225.5,30 156.3,149.8 										"/>
										<polygon class="st7" points="433.1,149.8 363.9,30 363.9,30 294.7,149.8 										"/>
										<polygon class="st8" points="363.9,30 225.5,30 225.5,30 294.7,149.8 										"/>
										<polygon class="st1" points="363.9,509.4 363.9,509.4 433.1,389.5 294.7,389.5 										"/>
										<polygon class="st10" points="225.5,509.4 225.5,509.4 363.9,509.4 294.7,389.5 										"/>
										<polygon class="st9" points="156.3,389.5 225.5,509.4 294.7,389.5 										"/>
										<polygon class="st8" points="294.7,389.5 225.5,269.7 156.3,389.5 										"/>
										<polygon class="st5" points="433.1,389.5 363.9,269.7 363.9,269.7 294.7,389.5 										"/>
										<polygon class="st11" points="363.9,269.7 225.5,269.7 225.5,269.7 294.7,389.5 										"/>
										<polygon class="st7" points="363.9,749.1 363.9,749.1 433.1,629.2 294.7,629.2 										"/>
										<polygon class="st12" points="225.5,749.1 225.5,749.1 363.9,749.1 294.7,629.2 										"/>
										<polygon class="st13" points="156.3,629.2 225.5,749.1 294.7,629.2 										"/>
										<polygon class="st14" points="294.7,629.2 225.5,509.4 156.3,629.2 										"/>
										<polygon class="st9" points="433.1,629.2 363.9,509.4 363.9,509.4 294.7,629.2 										"/>
										<polygon class="st8" points="363.9,509.4 225.5,509.4 225.5,509.4 294.7,629.2 										"/>
										<polygon class="st8" points="571.5,149.8 571.5,149.8 640.7,30 502.3,30 										"/>
										<polygon class="st6" points="433.1,149.8 433.1,149.8 571.5,149.8 502.3,30 										"/>
										<polygon class="st9" points="363.9,30 433.1,149.8 502.3,30 										"/>
										<polygon class="st8" points="502.3,30 433.1,-89.9 363.9,30 										"/>
										<polygon class="st7" points="640.7,30 571.5,-89.9 571.5,-89.9 502.3,30 										"/>
										<polygon class="st15" points="571.5,-89.9 433.1,-89.9 433.1,-89.9 502.3,30 										"/>
										<polygon class="st1" points="571.5,389.5 571.5,389.5 640.7,269.7 502.3,269.7 										"/>
										<polygon class="st16" points="433.1,389.5 433.1,389.5 571.5,389.5 502.3,269.7 										"/>
										<polygon class="st8" points="363.9,269.7 433.1,389.5 502.3,269.7 										"/>
										<polygon class="st1" points="502.3,269.7 433.1,149.8 363.9,269.7 										"/>
										<polygon class="st5" points="640.7,269.7 571.5,149.8 571.5,149.8 502.3,269.7 										"/>
										<polygon class="st8" points="571.5,149.8 433.1,149.8 433.1,149.8 502.3,269.7 										"/>
										<polygon class="st16" points="571.5,629.2 571.5,629.2 640.7,509.4 502.3,509.4 										"/>
										<polygon class="st7" points="433.1,629.2 433.1,629.2 571.5,629.2 502.3,509.4 										"/>
										<polygon class="st8" points="363.9,509.4 433.1,629.2 502.3,509.4 										"/>
										<polygon class="st7" points="502.3,509.4 433.1,389.5 363.9,509.4 										"/>
										<polygon class="st10" points="640.7,509.4 571.5,389.5 571.5,389.5 502.3,509.4 										"/>
										<polygon class="st9" points="571.5,389.5 433.1,389.5 433.1,389.5 502.3,509.4 										"/>
										<polygon class="st6" points="502.3,749.1 433.1,629.2 363.9,749.1 										"/>
										<polygon class="st9" points="640.7,749.1 571.5,629.2 571.5,629.2 502.3,749.1 										"/>
										<polygon class="st8" points="571.5,629.2 433.1,629.2 433.1,629.2 502.3,749.1 										"/>
										<polygon class="st9" points="-7.7,149.8 -7.7,194.2 17.9,149.8 										"/>
										<polygon class="st9" points="-7.7,105.4 -7.7,149.8 17.9,149.8 										"/>
										<polygon class="st1" points="-7.7,389.5 -7.7,433.9 17.9,389.5 										"/>
										<polygon class="st1" points="-7.7,345.1 -7.7,389.5 17.9,389.5 										"/>
										<polygon class="st1" points="-7.7,629.2 -7.7,673.6 17.9,629.2 										"/>
										<polygon class="st1" points="-7.7,584.8 -7.7,629.2 17.9,629.2 										"/>
										<polygon class="st9" points="156.3,149.8 156.3,149.8 225.5,30 87.1,30 										"/>
										<polygon class="st7" points="17.9,149.8 17.9,149.8 156.3,149.8 87.1,30 										"/>
										<polygon class="st8" points="-7.7,30 -7.7,105.4 17.9,149.8 87.1,30 										"/>
										<polygon class="st7" points="-7.7,30 87.1,30 17.9,-89.9 -7.7,-45.5 										"/>
										<polygon class="st8" points="225.5,30 156.3,-89.9 156.3,-89.9 87.1,30 										"/>
										<polygon class="st9" points="156.3,-89.9 17.9,-89.9 17.9,-89.9 87.1,30 										"/>
										<polygon class="st8" points="156.3,389.5 156.3,389.5 225.5,269.7 87.1,269.7 										"/>
										<polygon class="st1" points="17.9,389.5 17.9,389.5 156.3,389.5 87.1,269.7 										"/>
										<polygon class="st9" points="-7.7,269.7 -7.7,345.1 17.9,389.5 87.1,269.7 										"/>
										<polygon class="st1" points="-7.7,269.7 87.1,269.7 17.9,149.8 -7.7,194.2 										"/>
										<polygon class="st5" points="225.5,269.7 156.3,149.8 156.3,149.8 87.1,269.7 										"/>
										<polygon class="st8" points="156.3,149.8 17.9,149.8 17.9,149.8 87.1,269.7 										"/>
										<polygon class="st10" points="156.3,629.2 156.3,629.2 225.5,509.4 87.1,509.4 										"/>
										<polygon class="st8" points="17.9,629.2 17.9,629.2 156.3,629.2 87.1,509.4 										"/>
										<polygon class="st9" points="-7.7,509.4 -7.7,584.8 17.9,629.2 87.1,509.4 										"/>
										<polygon class="st17" points="-7.7,509.4 87.1,509.4 17.9,389.5 -7.7,433.9 										"/>
										<polygon class="st11" points="225.5,509.4 156.3,389.5 156.3,389.5 87.1,509.4 										"/>
										<polygon class="st8" points="156.3,389.5 17.9,389.5 17.9,389.5 87.1,509.4 										"/>
										<polygon class="st14" points="-7.7,749.1 87.1,749.1 17.9,629.2 -7.7,673.6 										"/>
										<polygon class="st9" points="225.5,749.1 156.3,629.2 156.3,629.2 87.1,749.1 										"/>
										<polygon class="st5" points="156.3,629.2 17.9,629.2 17.9,629.2 87.1,749.1 										"/>
										<polygon class="st8" points="1223.2,-89.9 1125.1,-89.9 1194.2,30 1223.2,-20.1 										"/>
										<polygon class="st9" points="1055.9,30 1055.9,30 1194.2,30 1125.1,-89.9 										"/>
										<polygon class="st15" points="986.7,-89.9 1055.9,30 1125.1,-89.9 										"/>
										<polygon class="st9" points="1223.2,149.8 1125.1,149.8 1194.2,269.7 1223.2,219.6 										"/>
										<polygon class="st1" points="1055.9,269.7 1055.9,269.7 1194.2,269.7 1125.1,149.8 										"/>
										<polygon class="st5" points="986.7,149.8 1055.9,269.7 1125.1,149.8 										"/>
										<polygon class="st6" points="1125.1,149.8 1055.9,30 986.7,149.8 										"/>
										<polygon class="st7" points="1223.2,80 1194.2,30 1125.1,149.8 1223.2,149.8 										"/>
										<polygon class="st8" points="1194.2,30 1055.9,30 1055.9,30 1125.1,149.8 										"/>
										<polygon class="st9" points="1223.2,389.5 1125.1,389.5 1194.2,509.4 1223.2,459.3 										"/>
										<polygon class="st7" points="1055.9,509.4 1055.9,509.4 1194.2,509.4 1125.1,389.5 										"/>
										<polygon class="st10" points="986.7,389.5 1055.9,509.4 1125.1,389.5 										"/>
										<polygon class="st8" points="1125.1,389.5 1055.9,269.7 986.7,389.5 										"/>
										<polygon class="st6" points="1223.2,319.7 1194.2,269.7 1125.1,389.5 1223.2,389.5 										"/>
										<polygon class="st16" points="1194.2,269.7 1055.9,269.7 1055.9,269.7 1125.1,389.5 										"/>
										<polygon class="st18" points="1223.2,629.2 1125.1,629.2 1194.2,749.1 1223.2,699 										"/>
										<polygon class="st19" points="1055.9,749.1 1055.9,749.1 1194.2,749.1 1125.1,629.2 										"/>
										<polygon class="st20" points="986.7,629.2 1055.9,749.1 1125.1,629.2 										"/>
										<polygon class="st16" points="1125.1,629.2 1055.9,509.4 986.7,629.2 										"/>
										<polygon class="st21" points="1223.2,559.4 1194.2,509.4 1125.1,629.2 1223.2,629.2 										"/>
										<polygon class="st22" points="1194.2,509.4 1055.9,509.4 1055.9,509.4 1125.1,629.2 										"/>
										<polygon class="st7" points="779.1,30 779.1,30 848.3,-89.9 709.9,-89.9 										"/>
										<polygon class="st8" points="640.7,30 640.7,30 779.1,30 709.9,-89.9 										"/>
										<polygon class="st6" points="571.5,-89.9 640.7,30 709.9,-89.9 										"/>
										<polygon class="st1" points="779.1,269.7 779.1,269.7 848.3,149.8 709.9,149.8 										"/>
										<polygon class="st8" points="640.7,269.7 640.7,269.7 779.1,269.7 709.9,149.8 										"/>
										<polygon class="st16" points="571.5,149.8 640.7,269.7 709.9,149.8 										"/>
										<polygon class="st5" points="709.9,149.8 640.7,30 571.5,149.8 										"/>
										<polygon class="st6" points="848.3,149.8 779.1,30 779.1,30 709.9,149.8 										"/>
										<polygon class="st9" points="779.1,30 640.7,30 640.7,30 709.9,149.8 										"/>
										<polygon class="st9" points="779.1,509.4 779.1,509.4 848.3,389.5 709.9,389.5 										"/>
										<polygon class="st1" points="640.7,509.4 640.7,509.4 779.1,509.4 709.9,389.5 										"/>
										<polygon class="st7" points="571.5,389.5 640.7,509.4 709.9,389.5 										"/>
										<polygon class="st8" points="709.9,389.5 640.7,269.7 571.5,389.5 										"/>
										<polygon class="st8" points="848.3,389.5 779.1,269.7 779.1,269.7 709.9,389.5 										"/>
										<polygon class="st9" points="779.1,269.7 640.7,269.7 640.7,269.7 709.9,389.5 										"/>
										<polygon class="st23" points="779.1,749.1 779.1,749.1 848.3,629.2 709.9,629.2 										"/>
										<polygon class="st9" points="640.7,749.1 640.7,749.1 779.1,749.1 709.9,629.2 										"/>
										<polygon class="st24" points="571.5,629.2 640.7,749.1 709.9,629.2 										"/>
										<polygon class="st6" points="709.9,629.2 640.7,509.4 571.5,629.2 										"/>
										<polygon class="st1" points="848.3,629.2 779.1,509.4 779.1,509.4 709.9,629.2 										"/>
										<polygon class="st9" points="779.1,509.4 640.7,509.4 640.7,509.4 709.9,629.2 										"/>
										<polygon class="st9" points="986.7,149.8 986.7,149.8 1055.9,30 917.5,30 										"/>
										<polygon class="st7" points="848.3,149.8 848.3,149.8 986.7,149.8 917.5,30 										"/>
										<polygon class="st8" points="779.1,30 848.3,149.8 917.5,30 										"/>
										<polygon class="st25" points="917.5,30 848.3,-89.9 779.1,30 										"/>
										<polygon class="st8" points="1055.9,30 986.7,-89.9 986.7,-89.9 917.5,30 										"/>
										<polygon class="st5" points="986.7,-89.9 848.3,-89.9 848.3,-89.9 917.5,30 										"/>
										<polygon class="st1" points="986.7,389.5 986.7,389.5 1055.9,269.7 917.5,269.7 										"/>
										<polygon class="st16" points="848.3,389.5 848.3,389.5 986.7,389.5 917.5,269.7 										"/>
										<polygon class="st1" points="779.1,269.7 848.3,389.5 917.5,269.7 										"/>
										<polygon class="st8" points="917.5,269.7 848.3,149.8 779.1,269.7 										"/>
										<polygon class="st9" points="1055.9,269.7 986.7,149.8 986.7,149.8 917.5,269.7 										"/>
										<polygon class="st1" points="986.7,149.8 848.3,149.8 848.3,149.8 917.5,269.7 										"/>
										<polygon class="st9" points="986.7,629.2 986.7,629.2 1055.9,509.4 917.5,509.4 										"/>
										<polygon class="st5" points="848.3,629.2 848.3,629.2 986.7,629.2 917.5,509.4 										"/>
										<polygon class="st26" points="779.1,509.4 848.3,629.2 917.5,509.4 										"/>
										<polygon class="st10" points="917.5,509.4 848.3,389.5 779.1,509.4 										"/>
										<polygon class="st9" points="1055.9,509.4 986.7,389.5 986.7,389.5 917.5,509.4 										"/>
										<polygon class="st1" points="986.7,389.5 848.3,389.5 848.3,389.5 917.5,509.4 										"/>
										<polygon class="st27" points="917.5,749.1 848.3,629.2 779.1,749.1 										"/>
										<polygon class="st28" points="1055.9,749.1 986.7,629.2 986.7,629.2 917.5,749.1 										"/>
										<polygon class="st9" points="986.7,629.2 848.3,629.2 848.3,629.2 917.5,749.1 										"/>
									</g>
								</g>
							</g>
							<g>
								<defs>
									<rect id="SVGID_00000111156552368415289760000014965229796376570000_" x="6.1" y="-70.4" width="1200" height="800"/>
								</defs>
								<clipPath id="SVGID_00000170269802963383439170000002443375121755212931_">
									<use xlink:href="#SVGID_00000111156552368415289760000014965229796376570000_"  style="overflow:visible;"/>
								</clipPath>
								<g style="clip-path:url(#SVGID_00000170269802963383439170000002443375121755212931_);">
									<g>
										
											<linearGradient id="SVGID_00000145045032792834853940000007578411356244198078_" gradientUnits="userSpaceOnUse" x1="225.51" y1="332.405" x2="363.9" y2="332.405" gradientTransform="matrix(1 0 0 -1 0 662)">
											<stop  offset="0" style="stop-color:#000000"/>
											<stop  offset="0.15" style="stop-color:#030303"/>
											<stop  offset="0.27" style="stop-color:#0E0E0E"/>
											<stop  offset="0.4" style="stop-color:#202020"/>
											<stop  offset="0.51" style="stop-color:#393939"/>
											<stop  offset="0.63" style="stop-color:#5A5A5A"/>
											<stop  offset="0.74" style="stop-color:#838383"/>
											<stop  offset="0.85" style="stop-color:#B2B2B2"/>
											<stop  offset="0.96" style="stop-color:#E8E8E8"/>
											<stop  offset="1" style="stop-color:#FFFFFF"/>
										</linearGradient>
										
											<polygon style="opacity:0.5;fill:url(#SVGID_00000145045032792834853940000007578411356244198078_);enable-background:new    ;" points="
											294.7,389.5 294.7,389.5 363.9,269.7 225.5,269.7 										"/>
										
											<linearGradient id="SVGID_00000016046721239388567330000006712865804724445363_" gradientUnits="userSpaceOnUse" x1="87.12" y1="92.705" x2="225.51" y2="92.705" gradientTransform="matrix(1 0 0 -1 0 662)">
											<stop  offset="0" style="stop-color:#000000"/>
											<stop  offset="0.15" style="stop-color:#030303"/>
											<stop  offset="0.27" style="stop-color:#0E0E0E"/>
											<stop  offset="0.4" style="stop-color:#202020"/>
											<stop  offset="0.51" style="stop-color:#393939"/>
											<stop  offset="0.63" style="stop-color:#5A5A5A"/>
											<stop  offset="0.74" style="stop-color:#838383"/>
											<stop  offset="0.85" style="stop-color:#B2B2B2"/>
											<stop  offset="0.96" style="stop-color:#E8E8E8"/>
											<stop  offset="1" style="stop-color:#FFFFFF"/>
										</linearGradient>
										
											<polygon style="opacity:0.5;fill:url(#SVGID_00000016046721239388567330000006712865804724445363_);enable-background:new    ;" points="
											156.3,629.2 156.3,629.2 225.5,509.4 87.1,509.4 										"/>
										
											<linearGradient id="SVGID_00000085933875502882293640000005978019392594717056_" gradientUnits="userSpaceOnUse" x1="-51.27" y1="92.705" x2="87.12" y2="92.705" gradientTransform="matrix(1 0 0 -1 0 662)">
											<stop  offset="0" style="stop-color:#000000"/>
											<stop  offset="0.15" style="stop-color:#030303"/>
											<stop  offset="0.27" style="stop-color:#0E0E0E"/>
											<stop  offset="0.4" style="stop-color:#202020"/>
											<stop  offset="0.51" style="stop-color:#393939"/>
											<stop  offset="0.63" style="stop-color:#5A5A5A"/>
											<stop  offset="0.74" style="stop-color:#838383"/>
											<stop  offset="0.85" style="stop-color:#B2B2B2"/>
											<stop  offset="0.96" style="stop-color:#E8E8E8"/>
											<stop  offset="1" style="stop-color:#FFFFFF"/>
										</linearGradient>
										
											<polygon style="opacity:0.5;fill:url(#SVGID_00000085933875502882293640000005978019392594717056_);enable-background:new    ;" points="
											17.9,629.2 17.9,629.2 87.1,509.4 -51.3,509.4 										"/>
										
											<linearGradient id="SVGID_00000056386205274969015440000006762571184282791560_" gradientUnits="userSpaceOnUse" x1="709.87" y1="212.555" x2="848.27" y2="212.555" gradientTransform="matrix(1 0 0 -1 0 662)">
											<stop  offset="0" style="stop-color:#000000"/>
											<stop  offset="0.15" style="stop-color:#030303"/>
											<stop  offset="0.27" style="stop-color:#0E0E0E"/>
											<stop  offset="0.4" style="stop-color:#202020"/>
											<stop  offset="0.51" style="stop-color:#393939"/>
											<stop  offset="0.63" style="stop-color:#5A5A5A"/>
											<stop  offset="0.74" style="stop-color:#838383"/>
											<stop  offset="0.85" style="stop-color:#B2B2B2"/>
											<stop  offset="0.96" style="stop-color:#E8E8E8"/>
											<stop  offset="1" style="stop-color:#FFFFFF"/>
										</linearGradient>
										
											<polygon style="opacity:0.5;fill:url(#SVGID_00000056386205274969015440000006762571184282791560_);enable-background:new    ;" points="
											779.1,509.4 779.1,509.4 848.3,389.5 709.9,389.5 										"/>
										
											<linearGradient id="SVGID_00000026128314800714771690000016990328730607778179_" gradientUnits="userSpaceOnUse" x1="17.93" y1="-27.145" x2="156.32" y2="-27.145" gradientTransform="matrix(1 0 0 -1 0 662)">
											<stop  offset="0" style="stop-color:#000000"/>
											<stop  offset="0.15" style="stop-color:#030303"/>
											<stop  offset="0.27" style="stop-color:#0E0E0E"/>
											<stop  offset="0.4" style="stop-color:#202020"/>
											<stop  offset="0.51" style="stop-color:#393939"/>
											<stop  offset="0.63" style="stop-color:#5A5A5A"/>
											<stop  offset="0.74" style="stop-color:#838383"/>
											<stop  offset="0.85" style="stop-color:#B2B2B2"/>
											<stop  offset="0.96" style="stop-color:#E8E8E8"/>
											<stop  offset="1" style="stop-color:#FFFFFF"/>
										</linearGradient>
										
											<polygon style="opacity:0.5;fill:url(#SVGID_00000026128314800714771690000016990328730607778179_);enable-background:new    ;" points="
											87.1,749.1 87.1,749.1 156.3,629.2 17.9,629.2 										"/>
										
											<linearGradient id="SVGID_00000116229436520771164250000012300106486654044572_" gradientUnits="userSpaceOnUse" x1="277.4045" y1="122.6667" x2="346.6045" y2="242.5167" gradientTransform="matrix(1 0 0 -1 0 662)">
											<stop  offset="0" style="stop-color:#000000"/>
											<stop  offset="6.000000e-02" style="stop-color:#090909"/>
											<stop  offset="0.15" style="stop-color:#212121"/>
											<stop  offset="0.28" style="stop-color:#4A4A4A"/>
											<stop  offset="0.42" style="stop-color:#828282"/>
											<stop  offset="0.58" style="stop-color:#C8C8C8"/>
											<stop  offset="0.69" style="stop-color:#FFFFFF"/>
										</linearGradient>
										<polygon style="fill:url(#SVGID_00000116229436520771164250000012300106486654044572_);" points="225.5,509.4 
											225.5,509.4 363.9,509.4 294.7,389.5 										"/>
										
											<linearGradient id="SVGID_00000083070553264751328150000007820357599114251706_" gradientUnits="userSpaceOnUse" x1="623.3745" y1="2.8167" x2="692.5745" y2="122.6667" gradientTransform="matrix(1 0 0 -1 0 662)">
											<stop  offset="0" style="stop-color:#000000"/>
											<stop  offset="6.000000e-02" style="stop-color:#090909"/>
											<stop  offset="0.15" style="stop-color:#212121"/>
											<stop  offset="0.28" style="stop-color:#4A4A4A"/>
											<stop  offset="0.42" style="stop-color:#828282"/>
											<stop  offset="0.58" style="stop-color:#C8C8C8"/>
											<stop  offset="0.69" style="stop-color:#FFFFFF"/>
										</linearGradient>
										<polygon style="fill:url(#SVGID_00000083070553264751328150000007820357599114251706_);" points="571.5,629.2 
											571.5,629.2 709.9,629.2 640.7,509.4 										"/>
										
											<linearGradient id="SVGID_00000040558549743201305670000002557532870069931690_" gradientUnits="userSpaceOnUse" x1="139.0183" y1="362.3688" x2="208.2108" y2="482.2232" gradientTransform="matrix(1 0 0 -1 0 662)">
											<stop  offset="0" style="stop-color:#000000"/>
											<stop  offset="0.1" style="stop-color:#050505"/>
											<stop  offset="0.22" style="stop-color:#141414"/>
											<stop  offset="0.36" style="stop-color:#2D2D2D"/>
											<stop  offset="0.51" style="stop-color:#505050"/>
											<stop  offset="0.66" style="stop-color:#7E7E7E"/>
											<stop  offset="0.82" style="stop-color:#B5B5B5"/>
											<stop  offset="0.98" style="stop-color:#F5F5F5"/>
											<stop  offset="1" style="stop-color:#FFFFFF"/>
										</linearGradient>
										<polygon style="fill:url(#SVGID_00000040558549743201305670000002557532870069931690_);" points="87.1,269.7 87.1,269.7 
											225.5,269.7 156.3,149.8 										"/>
										
											<linearGradient id="SVGID_00000000917683332730947120000010381092907533928325_" gradientUnits="userSpaceOnUse" x1="484.9845" y1="482.2167" x2="554.1845" y2="602.0667" gradientTransform="matrix(1 0 0 -1 0 662)">
											<stop  offset="0" style="stop-color:#000000"/>
											<stop  offset="6.000000e-02" style="stop-color:#090909"/>
											<stop  offset="0.15" style="stop-color:#212121"/>
											<stop  offset="0.28" style="stop-color:#4A4A4A"/>
											<stop  offset="0.42" style="stop-color:#828282"/>
											<stop  offset="0.58" style="stop-color:#C8C8C8"/>
											<stop  offset="0.69" style="stop-color:#FFFFFF"/>
										</linearGradient>
										<polygon style="fill:url(#SVGID_00000000917683332730947120000010381092907533928325_);" points="433.1,149.8 
											433.1,149.8 571.5,149.8 502.3,30 										"/>
										
											<linearGradient id="SVGID_00000150797410618390453980000001870989478290185646_" gradientUnits="userSpaceOnUse" x1="900.1683" y1="482.2189" x2="969.3583" y2="602.0688" gradientTransform="matrix(1 0 0 -1 0 662)">
											<stop  offset="0" style="stop-color:#000000"/>
											<stop  offset="8.000000e-02" style="stop-color:#090909"/>
											<stop  offset="0.22" style="stop-color:#212121"/>
											<stop  offset="0.4" style="stop-color:#4A4A4A"/>
											<stop  offset="0.61" style="stop-color:#828282"/>
											<stop  offset="0.84" style="stop-color:#C8C8C8"/>
											<stop  offset="1" style="stop-color:#FFFFFF"/>
										</linearGradient>
										<polygon style="fill:url(#SVGID_00000150797410618390453980000001870989478290185646_);" points="848.3,149.8 
											848.3,149.8 986.7,149.8 917.5,30 										"/>
										
											<linearGradient id="SVGID_00000031926177308022484130000016019961295415252135_" gradientUnits="userSpaceOnUse" x1="0.6283" y1="122.6689" x2="69.8208" y2="242.5232" gradientTransform="matrix(1 0 0 -1 0 662)">
											<stop  offset="0" style="stop-color:#000000"/>
											<stop  offset="8.000000e-02" style="stop-color:#090909"/>
											<stop  offset="0.22" style="stop-color:#212121"/>
											<stop  offset="0.4" style="stop-color:#4A4A4A"/>
											<stop  offset="0.61" style="stop-color:#828282"/>
											<stop  offset="0.84" style="stop-color:#C8C8C8"/>
											<stop  offset="1" style="stop-color:#FFFFFF"/>
										</linearGradient>
										<polygon style="fill:url(#SVGID_00000031926177308022484130000016019961295415252135_);" points="-51.3,509.4 
											-51.3,509.4 87.1,509.4 17.9,389.5 										"/>
										
											<linearGradient id="SVGID_00000070807151430293264830000000988314950758380678_" gradientUnits="userSpaceOnUse" x1="830.9645" y1="362.3667" x2="900.1646" y2="482.2167" gradientTransform="matrix(1 0 0 -1 0 662)">
											<stop  offset="0" style="stop-color:#000000"/>
											<stop  offset="8.000000e-02" style="stop-color:#090909"/>
											<stop  offset="0.22" style="stop-color:#212121"/>
											<stop  offset="0.4" style="stop-color:#4A4A4A"/>
											<stop  offset="0.61" style="stop-color:#828282"/>
											<stop  offset="0.84" style="stop-color:#C8C8C8"/>
											<stop  offset="1" style="stop-color:#FFFFFF"/>
										</linearGradient>
										<polygon style="fill:url(#SVGID_00000070807151430293264830000000988314950758380678_);" points="779.1,269.7 
											779.1,269.7 917.5,269.7 848.3,149.8 										"/>
										
											<linearGradient id="SVGID_00000052089915586205322630000005306920929015746433_" gradientUnits="userSpaceOnUse" x1="900.1683" y1="242.5189" x2="969.3583" y2="362.3689" gradientTransform="matrix(1 0 0 -1 0 662)">
											<stop  offset="0" style="stop-color:#000000"/>
											<stop  offset="8.000000e-02" style="stop-color:#090909"/>
											<stop  offset="0.22" style="stop-color:#212121"/>
											<stop  offset="0.4" style="stop-color:#4A4A4A"/>
											<stop  offset="0.61" style="stop-color:#828282"/>
											<stop  offset="0.84" style="stop-color:#C8C8C8"/>
											<stop  offset="1" style="stop-color:#FFFFFF"/>
										</linearGradient>
										<polygon style="fill:url(#SVGID_00000052089915586205322630000005306920929015746433_);" points="848.3,389.5 
											848.3,389.5 986.7,389.5 917.5,269.7 										"/>
										
											<linearGradient id="SVGID_00000112621766504027872480000013140692958256028802_" gradientUnits="userSpaceOnUse" x1="554.1883" y1="122.6689" x2="623.3783" y2="242.5189" gradientTransform="matrix(1 0 0 -1 0 662)">
											<stop  offset="0" style="stop-color:#000000"/>
											<stop  offset="8.000000e-02" style="stop-color:#090909"/>
											<stop  offset="0.22" style="stop-color:#212121"/>
											<stop  offset="0.4" style="stop-color:#4A4A4A"/>
											<stop  offset="0.61" style="stop-color:#828282"/>
											<stop  offset="0.84" style="stop-color:#C8C8C8"/>
											<stop  offset="1" style="stop-color:#FFFFFF"/>
										</linearGradient>
										<polygon style="fill:url(#SVGID_00000112621766504027872480000013140692958256028802_);" points="502.3,509.4 
											502.3,509.4 640.7,509.4 571.5,389.5 										"/>
									</g>
								</g>
							</g>
						</g>
					</g>
				</g>
			</g>
		</g>
	</g>
</g>
</svg>
