<?xml version="1.0" encoding="utf-8"?>
<!-- Generator: Adobe Illustrator 27.8.0, SVG Export Plug-In . SVG Version: 6.00 Build 0)  -->
<svg version="1.1" id="Layer_2_00000000199856536072664170000016437169222699921561_"
	 xmlns="http://www.w3.org/2000/svg" xmlns:xlink="http://www.w3.org/1999/xlink" x="0px" y="0px" viewBox="0 0 749.3 494.9"
	 style="enable-background:new 0 0 749.3 494.9;" xml:space="preserve">
<style type="text/css">
	.st0{enable-background:new    ;}
	.st1{opacity:0.66;fill:#8C6239;stroke:#000000;stroke-width:0.3;stroke-miterlimit:10;enable-background:new    ;}
	.st2{opacity:0.66;fill:#999999;stroke:#000000;stroke-width:0.3;stroke-miterlimit:10;enable-background:new    ;}
	.st3{opacity:0.66;fill:#00FFFF;stroke:#000000;stroke-width:0.3;stroke-miterlimit:10;enable-background:new    ;}
	.st4{opacity:0.66;fill:#A0D89A;enable-background:new    ;}
</style>
<g id="Layer_1-2">
	<g class="st0">
		<path d="M9.2,432.8v-19.1h52.2c23.5,0,35.2-7.9,35.2-23.6c0-10.1-6.2-18.1-18.6-24.1l-41.4-19.6c-18.2-8.6-27.3-21.5-27.3-38.5
			c0-27.2,17.1-40.8,51.4-40.8h50.4v19.1H66.5c-7.9,0-13.7,0.3-17.4,1c-3.6,0.7-7.4,2.6-11.3,5.7c-3.9,3.2-5.8,8.2-5.8,15.2
			c0,5.3,1.2,9.6,3.7,12.7c2.5,3.2,6.9,6.2,13.4,9.2l43.7,20.1c17.7,8.3,26.5,21.5,26.5,39.7c0,28.6-17.3,42.9-51.8,42.9H9.2z"/>
		<path d="M159.1,338v52.6c0,9.8,1.7,16.3,5.2,19.6c3.5,3.3,10.5,5,21.1,5h9.7v17.6h-10.7c-17.2,0-29-3-35.5-8.9
			c-6.5-6-9.7-16.8-9.7-32.5v-105h19.9v34.2h36V338H159.1z"/>
		<path d="M290.3,320.2h19.9v64c0,15.4-4.5,27.7-13.4,37c-8.9,9.3-20.8,13.9-35.5,13.9c-14.6,0-26.3-4.6-35.2-13.9
			c-8.9-9.3-13.4-21.6-13.4-37v-64h19.9v59.3c0,11.4,2.5,20.3,7.4,26.5c5,6.3,12,9.4,21.1,9.4c5.1,0,9.8-1.2,14-3.5
			c4.2-2.3,7.8-5.8,10.8-10.5c3-4.7,4.5-12.6,4.5-23.7V320.2z"/>
		<path d="M443.4,267.1v104.6c0,18.7-5.5,34-16.4,45.7s-25.1,17.6-42.4,17.6c-16.7,0-30.7-5.7-42.1-17.2c-11.3-11.5-17-25.7-17-42.6
			c0-15.5,5.6-29,16.9-40.4c11.2-11.4,24.6-17.1,40.2-17.1c12.1,0,23,4.1,32.8,12.2v21.6c-5.8-5.3-11-9-15.6-11
			c-4.6-2.1-9.8-3.1-15.4-3.1c-10.9,0-20,3.7-27.3,11.2c-7.3,7.4-10.9,16.7-10.9,27.8c0,11.1,3.7,20.4,11,27.9
			c7.4,7.5,16.4,11.3,27.2,11.3c13.4,0,23.3-4.6,29.7-13.9c6.4-9.3,9.6-20.5,9.6-33.8V267.1H443.4z"/>
		<path d="M483.3,272.8c4,0,7.4,1.4,10.2,4.2c2.8,2.8,4.2,6.2,4.2,10.2c0,4.1-1.4,7.6-4.2,10.4c-2.8,2.8-6.2,4.2-10.2,4.2
			c-4.1,0-7.6-1.4-10.4-4.2c-2.8-2.8-4.2-6.3-4.2-10.4c0-4,1.4-7.4,4.2-10.2C475.7,274.2,479.2,272.8,483.3,272.8z M493.5,432.8
			h-19.9V319.9h19.9V432.8z"/>
		<path d="M575.9,317.9c16,0,29.8,5.8,41.2,17.4c11.4,11.6,17.1,25.6,17.1,41.9c0,15.7-5.7,29.3-17.1,40.7s-25.1,17.1-41.2,17.1
			c-16.5,0-30.6-5.7-42.2-17.1c-11.6-11.4-17.4-25.4-17.4-41.9c0-15.9,5.8-29.5,17.4-40.9C545.3,323.6,559.4,317.9,575.9,317.9z
			 M575.9,337.5c-10.8,0-19.9,3.7-27.5,11.2c-7.6,7.4-11.4,16.5-11.4,27.3c0,11.3,3.8,20.6,11.3,28.2c7.5,7.5,16.9,11.3,28.2,11.3
			c9.9,0,18.6-3.8,26.1-11.4c7.4-7.6,11.2-16.5,11.2-26.8c0-11.1-3.7-20.5-11-28.2C595.2,341.4,586.3,337.5,575.9,337.5z"/>
		<path d="M650.3,432.8v-17.4h44.4h2.5c6.5,0,10.5-0.1,12.2-0.4c1.7-0.2,3.8-1.1,6.6-2.5c2.7-1.4,4.1-4.6,4.1-9.6
			c0-5.6-3.4-9.6-10.2-11.9L668,376.2c-7.9-2.8-13.6-6.3-17-10.5c-3.4-4.2-5.1-9.9-5.1-17c0-19,13.7-28.5,41.2-28.5h45.2v17.4h-48.1
			c-12.1,0-18.1,4.2-18.1,12.7c0,5.3,3.5,9.1,10.4,11.4l39.2,13.9c9.3,3.1,15.8,6.8,19.5,11s5.6,9.9,5.6,17
			c0,19.5-12.5,29.3-37.5,29.3H650.3z"/>
	</g>
	<g>
		<g id="iXLB3g.tif">
			<g>
				<polygon class="st1" points="332.3,190.6 350.9,166.3 374.1,136.9 397.6,110.6 405,107.6 415,109.3 426.8,117.6 436.5,126.7 
					441.4,136.9 439.7,147.7 432.9,158.5 412.3,182.7 393.5,203.9 371.1,226 363.9,225.1 353.1,216.5 334.7,199.4 330.8,193.4 				
					"/>
				<polygon class="st2" points="322,205.7 321.3,200.2 324.4,195.7 328.1,195.4 333.2,199.1 349.9,212.7 360.5,221.5 369.3,228.4 
					369.6,233.6 363.5,238.7 351.7,231.8 				"/>
				<polygon class="st3" points="302.9,224.2 307,223.6 310.5,225.1 309.6,230.6 305,231.8 303.5,230.6 				"/>
				<polygon class="st3" points="293.5,243.6 292.6,254 290.8,268.7 290.3,279.6 290.3,281.8 296.5,280.7 316,276.6 326.5,272.6 
					321.3,270.9 317.5,267.5 316.5,263.3 317.2,260.1 319.3,254.5 322,251.8 322.8,248.2 322.8,244.9 322,240.5 320,239.5 
					315.4,238.7 311.3,240.5 304.3,243.2 298.4,244.2 294.4,243.6 				"/>
				<polygon class="st3" points="344.4,253 347.1,249.9 353.2,248.3 355.8,253 350.1,260.8 344.4,267 335,267.8 336.8,261.7 
					343.8,253 				"/>
				<polygon class="st4" points="314.3,208.6 317.8,208.6 322.8,208.6 332.7,215.3 343.4,225.1 353.2,232.7 357.8,238.7 
					357.8,245.3 355.8,253.6 347.6,264.3 337.3,268.6 330.8,271 323.3,271.8 318.4,269.4 314.9,263.7 318.5,256.1 322.2,250.7 
					324.3,243.1 322,239.5 317,237.1 310.5,239.5 305.7,242.7 300,244.3 294.6,242.2 292.6,237.5 294.7,230.8 296.5,227.4 
					300.4,221 305.7,214.5 309.1,211.6 				"/>
				<path d="M361.5,240.7c-0.9,3.9-1.4,7.4-2.5,10.7c-2.7,8.6-9,14-16.9,17.7c-15.7,7.2-32.3,11.3-49.1,14.7
					c-2.7,0.5-4.6,0.1-4.5-3.1c0.4-18.6,1-37.2,6.6-55.2c3-9.7,9.7-15.8,19.2-19.1c2.6-0.9,4-1.7,4-4.9c0-4.3,4-7.7,8.3-8.9
					c1.6-0.4,3.7-1.6,4.4-3c6.5-13,15.5-24.2,24.8-35.2c11.1-13.1,21.9-26.4,32.9-39.6c10.1-12.2,22.5-13.4,34.6-3.4
					c4.2,3.5,8.5,6.9,12.7,10.6c9.5,8.2,11,21.1,3.1,30.8c-15.9,19.6-32,39-48.4,58.2c-4.5,5.2-10.5,9.1-15.5,13.9
					c-1.6,1.6-2.7,4.1-3.3,6.4C370.5,237.1,367.3,240.5,361.5,240.7L361.5,240.7z M411.6,179.6L411.6,179.6
					c7.9-9.6,16-19.1,23.8-28.8c6.5-8.1,5.6-18.3-2.2-25.1c-4.2-3.7-8.7-7.3-13-10.9c-10.1-8.3-19.9-7.4-28.3,2.7
					c-13,15.7-26.3,31.1-38.9,47.1c-6.7,8.6-12.2,18.2-18.3,27.3c-1.5,2.3-1,4.1,1.1,5.8c10,8.2,19.9,16.6,30,24.6
					c1.1,0.9,4,1.1,5,0.4c6.8-5.7,13.7-11.4,19.7-17.9C397.9,196.9,404.5,188.1,411.6,179.6L411.6,179.6z M299.5,226.7
					c-0.4,1.1-0.9,1.9-1,2.8c-0.7,3.8-3.9,8,0.1,11.2c4.4,3.6,7.5-0.2,10.8-2.9c4.4-3.7,9.9-3.2,14.1,0.7c3.9,3.6,4.4,9,1.3,13.6
					c-1.2,1.7-2.6,3.3-3.9,4.9c-3.5,4.4-3.8,8.2-0.8,10.7c3.1,2.6,7.1,1.6,10.9-2.8c2.9-3.5,5.9-6.9,8.7-10.5
					c4-5.3,8.3-10.2,15.9-8.3c1.9-5.2,1.4-9-3-12.4c-8.2-6.3-16-13.1-24-19.7c-7-5.8-10.8-6-18.5-1c-5.3,3.4-7,5.3-7.7,8.8
					c7-1.7,9.6-1,11,3c1.3,3.6-0.2,7-3.6,8.4C305.7,235,303.1,233.3,299.5,226.7L299.5,226.7z M318.5,273.1
					c-6.7-8.5-6.6-12-0.6-19.4c1.2-1.5,3.2-3,3.4-4.6c0.2-2.6,0-6.1-1.6-7.7c-1.3-1.3-6-1.4-7.2-0.1c-4.9,4.9-10,6.7-17.5,3.2
					c-0.8,12-1.5,23.1-2.3,35C302,277.3,309.9,275.3,318.5,273.1L318.5,273.1z M342.3,219.8c5.7,4.7,11.4,9.5,17.1,14.2
					c2.1,1.7,4.2,2.5,6.4,0.2c2.3-2.6,1.3-4.7-1-6.6c-11.4-9.5-22.7-19.1-34.1-28.6c-2.2-1.8-4.5-2.7-6.7,0c-2.3,2.7-1,4.7,1.2,6.6
					C330.9,210.4,336.6,215.1,342.3,219.8L342.3,219.8z M336.8,265.1c6.2,0.9,15.6-7,16.5-13.8C348.4,249.4,347.4,251.4,336.8,265.1
					z M304.3,230.6c2.3-0.5,4.3-0.3,5-1.2c0.7-0.9,0.1-2.8,0-4.3c-1.5,0.1-3.4-0.4-4.3,0.4C304.2,226.3,304.6,228.3,304.3,230.6
					L304.3,230.6z"/>
				<path d="M405.5,173.3c6.4-7.7,12.7-15.5,19.3-23.1c1.1-1.3,3.2-1.7,4.9-2.5c-0.6,1.8-0.7,4-1.8,5.4
					c-12.5,15.3-25.1,30.4-37.7,45.6c-0.7,0.9-1.4,1.9-2.3,2.4c-0.8,0.5-2,0.5-3,0.7c0-1.1-0.5-2.6,0-3.4c2.6-3.5,5.4-6.8,8.2-10.2
					C397.3,183.2,401.4,178.3,405.5,173.3L405.5,173.3z"/>
			</g>
		</g>
		<path d="M298,222.5c-0.6-4-0.6-4.6-2.1-10.4c-2-7.3-4.3-15.5-5.7-24.4h40.6c-0.1,0.7,2.7,1.6,2.6,2.3l13.3-19.8
			c0.5-6.4,0.7-12.9,0.7-19.4c0-7.7-0.3-15.5-1-23h35.5l15.8-19C382,76.4,348.8,54,310.5,54c-41.9,0-77.6,26.8-91.1,64.1
			c-0.1,0.3-0.2,0.6-0.3,0.9c-3.5,10-5.4,20.7-5.4,31.8s1.9,21.9,5.4,31.8c0.1,0.3,0.2,0.6,0.3,0.9c10.6,29.5,41.2,53.5,71.8,61.8
			L298,222.5L298,222.5z M332.5,173.8h-44c-0.7-7.4-1-15.1-1-23s0.4-15.6,1-23h44c0.7,7.4,1,15.1,1,23S333.2,166.4,332.5,173.8z
			 M384.7,113.9h-39.9c-2.5-17-6.7-32.3-12.6-43.1C355.2,77,374.3,92.9,384.7,113.9z M295.9,89.4c5-14.9,10.9-21.6,14.6-21.6
			s9.6,6.7,14.6,21.6c2.4,7.2,4.3,15.5,5.7,24.4h-40.6C291.6,104.9,293.5,96.6,295.9,89.4z M288.8,70.8
			c-5.9,10.9-10.2,26.1-12.6,43.1h-39.9C246.7,92.9,265.8,77,288.8,70.8z M227.6,150.8c0-8,1.1-15.7,3.2-23h43.7
			c-0.6,7.5-1,15.3-1,23s0.3,15.5,1,23h-43.8C228.7,166.5,227.6,158.8,227.6,150.8L227.6,150.8z M236.3,187.7h39.9
			c2.5,17,6.7,32.3,12.6,43.1C265.8,224.6,246.7,208.6,236.3,187.7L236.3,187.7z"/>
	</g>
	<path d="M188,0.1v229.6c0,11.3-1,20-3,26.1c-2,6.1-5.6,11.7-10.9,16.7s-11.3,8.5-18.1,10.6s-15.3,3.1-25.6,3.1h-19.8V267H124
		c8.9,0,15.7-0.6,20.2-1.7s8.6-3.4,12.2-6.8c3.6-3.4,6-7.4,7.4-12.1c1.4-4.6,2.1-10.9,2.1-18.9V0.1H188L188,0.1z"/>
	<path d="M480.3,90.1v97.8c0,20.1,5.4,32.1,10.8,40.4c7.5,11.7,21.5,22.7,59.5,22.7h20l1,23.8h-22c-35.5,0-59.9-6.1-73.2-18.4
		c-13.3-12.3-20-34.6-20-67V0h23.9v70.6h91.2v19.5L480.3,90.1L480.3,90.1z"/>
</g>
</svg>
